<svg width="524" height="327" viewBox="0 0 524 327" fill="none" xmlns="http://www.w3.org/2000/svg">
<g clip-path="url(#clip0)">
<path d="M128.179 205.602H85.2044C82.7453 205.602 80.7518 207.595 80.7518 210.055V221.801C80.7518 224.261 82.7453 226.254 85.2044 226.254H128.179C130.638 226.254 132.632 224.261 132.632 221.801V210.055C132.632 207.595 130.638 205.602 128.179 205.602Z" fill="black"/>
<path d="M180.06 205.602H137.085C134.625 205.602 132.632 207.595 132.632 210.055V221.801C132.632 224.261 134.625 226.254 137.085 226.254H180.06C182.519 226.254 184.512 224.261 184.512 221.801V210.055C184.512 207.595 182.519 205.602 180.06 205.602Z" fill="black"/>
<path opacity="0.1" d="M180.06 205.602H137.085C134.625 205.602 132.632 207.595 132.632 210.055V221.801C132.632 224.261 134.625 226.254 137.085 226.254H180.06C182.519 226.254 184.512 224.261 184.512 221.801V210.055C184.512 207.595 182.519 205.602 180.06 205.602Z" fill="black"/>
<path d="M231.94 205.602H188.965C186.506 205.602 184.512 207.595 184.512 210.055V221.801C184.512 224.261 186.506 226.254 188.965 226.254H231.94C234.399 226.254 236.392 224.261 236.392 221.801V210.055C236.392 207.595 234.399 205.602 231.94 205.602Z" fill="black"/>
<path d="M283.82 205.602H240.845C238.386 205.602 236.392 207.595 236.392 210.055V221.801C236.392 224.261 238.386 226.254 240.845 226.254H283.82C286.279 226.254 288.273 224.261 288.273 221.801V210.055C288.273 207.595 286.279 205.602 283.82 205.602Z" fill="black"/>
<path opacity="0.1" d="M283.82 205.602H240.845C238.386 205.602 236.392 207.595 236.392 210.055V221.801C236.392 224.261 238.386 226.254 240.845 226.254H283.82C286.279 226.254 288.273 224.261 288.273 221.801V210.055C288.273 207.595 286.279 205.602 283.82 205.602Z" fill="black"/>
<path d="M335.7 205.602H292.725C290.266 205.602 288.273 207.595 288.273 210.055V221.801C288.273 224.261 290.266 226.254 292.725 226.254H335.7C338.159 226.254 340.153 224.261 340.153 221.801V210.055C340.153 207.595 338.159 205.602 335.7 205.602Z" fill="black"/>
<path d="M387.58 205.602H344.605C342.146 205.602 340.153 207.595 340.153 210.055V221.801C340.153 224.261 342.146 226.254 344.605 226.254H387.58C390.039 226.254 392.033 224.261 392.033 221.801V210.055C392.033 207.595 390.039 205.602 387.58 205.602Z" fill="black"/>
<path opacity="0.1" d="M387.58 205.602H344.605C342.146 205.602 340.153 207.595 340.153 210.055V221.801C340.153 224.261 342.146 226.254 344.605 226.254H387.58C390.039 226.254 392.033 224.261 392.033 221.801V210.055C392.033 207.595 390.039 205.602 387.58 205.602Z" fill="black"/>
<path d="M344.605 205.602H387.58C390.039 205.602 392.033 203.608 392.033 201.149V189.402C392.033 186.942 390.039 184.949 387.58 184.949H344.605C342.146 184.949 340.153 186.942 340.153 189.402V201.149C340.153 203.608 342.146 205.602 344.605 205.602Z" fill="black"/>
<path d="M292.725 205.602H335.7C338.159 205.602 340.153 203.608 340.153 201.149V189.402C340.153 186.942 338.159 184.949 335.7 184.949H292.725C290.266 184.949 288.273 186.942 288.273 189.402V201.149C288.273 203.608 290.266 205.602 292.725 205.602Z" fill="black"/>
<path opacity="0.1" d="M292.725 205.602H335.7C338.159 205.602 340.153 203.608 340.153 201.149V189.402C340.153 186.942 338.159 184.949 335.7 184.949H292.725C290.266 184.949 288.273 186.942 288.273 189.402V201.149C288.273 203.608 290.266 205.602 292.725 205.602Z" fill="black"/>
<path d="M240.845 205.602H283.82C286.279 205.602 288.273 203.608 288.273 201.149V189.402C288.273 186.942 286.279 184.949 283.82 184.949H240.845C238.386 184.949 236.392 186.942 236.392 189.402V201.149C236.392 203.608 238.386 205.602 240.845 205.602Z" fill="black"/>
<path d="M188.965 205.602H231.94C234.399 205.602 236.392 203.608 236.392 201.149V189.402C236.392 186.942 234.399 184.949 231.94 184.949H188.965C186.506 184.949 184.512 186.942 184.512 189.402V201.149C184.512 203.608 186.506 205.602 188.965 205.602Z" fill="black"/>
<path opacity="0.1" d="M188.965 205.602H231.94C234.399 205.602 236.392 203.608 236.392 201.149V189.402C236.392 186.942 234.399 184.949 231.94 184.949H188.965C186.506 184.949 184.512 186.942 184.512 189.402V201.149C184.512 203.608 186.506 205.602 188.965 205.602Z" fill="black"/>
<path d="M137.085 205.602H180.06C182.519 205.602 184.512 203.608 184.512 201.149V189.402C184.512 186.942 182.519 184.949 180.06 184.949H137.085C134.625 184.949 132.632 186.942 132.632 189.402V201.149C132.632 203.608 134.625 205.602 137.085 205.602Z" fill="black"/>
<path d="M85.2044 205.602H128.179C130.638 205.602 132.632 203.608 132.632 201.149V189.402C132.632 186.942 130.638 184.949 128.179 184.949H85.2044C82.7453 184.949 80.7518 186.942 80.7518 189.402V201.149C80.7518 203.608 82.7453 205.602 85.2044 205.602Z" fill="black"/>
<path opacity="0.1" d="M85.2044 205.602H128.179C130.638 205.602 132.632 203.608 132.632 201.149V189.402C132.632 186.942 130.638 184.949 128.179 184.949H85.2044C82.7453 184.949 80.7518 186.942 80.7518 189.402V201.149C80.7518 203.608 82.7453 205.602 85.2044 205.602Z" fill="black"/>
<path d="M128.179 164.296H85.2044C82.7453 164.296 80.7518 166.29 80.7518 168.749V180.496C80.7518 182.955 82.7453 184.949 85.2044 184.949H128.179C130.638 184.949 132.632 182.955 132.632 180.496V168.749C132.632 166.29 130.638 164.296 128.179 164.296Z" fill="black"/>
<path d="M180.06 164.296H137.085C134.625 164.296 132.632 166.29 132.632 168.749V180.496C132.632 182.955 134.625 184.949 137.085 184.949H180.06C182.519 184.949 184.512 182.955 184.512 180.496V168.749C184.512 166.29 182.519 164.296 180.06 164.296Z" fill="black"/>
<path opacity="0.1" d="M180.06 164.296H137.085C134.625 164.296 132.632 166.29 132.632 168.749V180.496C132.632 182.955 134.625 184.949 137.085 184.949H180.06C182.519 184.949 184.512 182.955 184.512 180.496V168.749C184.512 166.29 182.519 164.296 180.06 164.296Z" fill="black"/>
<path d="M231.94 164.296H188.965C186.506 164.296 184.512 166.29 184.512 168.749V180.496C184.512 182.955 186.506 184.949 188.965 184.949H231.94C234.399 184.949 236.392 182.955 236.392 180.496V168.749C236.392 166.29 234.399 164.296 231.94 164.296Z" fill="black"/>
<path d="M283.82 164.296H240.845C238.386 164.296 236.392 166.29 236.392 168.749V180.496C236.392 182.955 238.386 184.949 240.845 184.949H283.82C286.279 184.949 288.273 182.955 288.273 180.496V168.749C288.273 166.29 286.279 164.296 283.82 164.296Z" fill="black"/>
<path opacity="0.1" d="M283.82 164.296H240.845C238.386 164.296 236.392 166.29 236.392 168.749V180.496C236.392 182.955 238.386 184.949 240.845 184.949H283.82C286.279 184.949 288.273 182.955 288.273 180.496V168.749C288.273 166.29 286.279 164.296 283.82 164.296Z" fill="black"/>
<path d="M335.7 164.296H292.725C290.266 164.296 288.273 166.29 288.273 168.749V180.496C288.273 182.955 290.266 184.949 292.725 184.949H335.7C338.159 184.949 340.153 182.955 340.153 180.496V168.749C340.153 166.29 338.159 164.296 335.7 164.296Z" fill="black"/>
<path d="M387.58 164.296H344.605C342.146 164.296 340.153 166.29 340.153 168.749V180.496C340.153 182.955 342.146 184.949 344.605 184.949H387.58C390.039 184.949 392.033 182.955 392.033 180.496V168.749C392.033 166.29 390.039 164.296 387.58 164.296Z" fill="black"/>
<path opacity="0.1" d="M387.58 164.296H344.605C342.146 164.296 340.153 166.29 340.153 168.749V180.496C340.153 182.955 342.146 184.949 344.605 184.949H387.58C390.039 184.949 392.033 182.955 392.033 180.496V168.749C392.033 166.29 390.039 164.296 387.58 164.296Z" fill="black"/>
<path d="M344.605 164.296H387.58C390.039 164.296 392.033 162.302 392.033 159.843V148.096C392.033 145.637 390.039 143.643 387.58 143.643H344.605C342.146 143.643 340.153 145.637 340.153 148.096V159.843C340.153 162.302 342.146 164.296 344.605 164.296Z" fill="black"/>
<path d="M292.725 164.296H335.7C338.159 164.296 340.153 162.302 340.153 159.843V148.096C340.153 145.637 338.159 143.643 335.7 143.643H292.725C290.266 143.643 288.273 145.637 288.273 148.096V159.843C288.273 162.302 290.266 164.296 292.725 164.296Z" fill="black"/>
<path opacity="0.1" d="M292.725 164.296H335.7C338.159 164.296 340.153 162.302 340.153 159.843V148.096C340.153 145.637 338.159 143.643 335.7 143.643H292.725C290.266 143.643 288.273 145.637 288.273 148.096V159.843C288.273 162.302 290.266 164.296 292.725 164.296Z" fill="black"/>
<path d="M240.845 164.296H283.82C286.279 164.296 288.273 162.302 288.273 159.843V148.096C288.273 145.637 286.279 143.643 283.82 143.643H240.845C238.386 143.643 236.392 145.637 236.392 148.096V159.843C236.392 162.302 238.386 164.296 240.845 164.296Z" fill="black"/>
<path d="M188.965 164.296H231.94C234.399 164.296 236.392 162.302 236.392 159.843V148.096C236.392 145.637 234.399 143.643 231.94 143.643H188.965C186.506 143.643 184.512 145.637 184.512 148.096V159.843C184.512 162.302 186.506 164.296 188.965 164.296Z" fill="black"/>
<path opacity="0.1" d="M188.965 164.296H231.94C234.399 164.296 236.392 162.302 236.392 159.843V148.096C236.392 145.637 234.399 143.643 231.94 143.643H188.965C186.506 143.643 184.512 145.637 184.512 148.096V159.843C184.512 162.302 186.506 164.296 188.965 164.296Z" fill="black"/>
<path d="M137.085 164.296H180.06C182.519 164.296 184.512 162.302 184.512 159.843V148.096C184.512 145.637 182.519 143.643 180.06 143.643H137.085C134.625 143.643 132.632 145.637 132.632 148.096V159.843C132.632 162.302 134.625 164.296 137.085 164.296Z" fill="black"/>
<path d="M85.2044 164.296H128.179C130.638 164.296 132.632 162.302 132.632 159.843V148.096C132.632 145.637 130.638 143.643 128.179 143.643H85.2044C82.7453 143.643 80.7518 145.637 80.7518 148.096V159.843C80.7518 162.302 82.7453 164.296 85.2044 164.296Z" fill="black"/>
<path opacity="0.1" d="M85.2044 164.296H128.179C130.638 164.296 132.632 162.302 132.632 159.843V148.096C132.632 145.637 130.638 143.643 128.179 143.643H85.2044C82.7453 143.643 80.7518 145.637 80.7518 148.096V159.843C80.7518 162.302 82.7453 164.296 85.2044 164.296Z" fill="black"/>
<path d="M128.179 123.998H85.2044C82.7453 123.998 80.7518 125.991 80.7518 128.451V140.198C80.7518 142.657 82.7453 144.651 85.2044 144.651H128.179C130.638 144.651 132.632 142.657 132.632 140.198V128.451C132.632 125.991 130.638 123.998 128.179 123.998Z" fill="black"/>
<path d="M180.06 123.998H137.085C134.625 123.998 132.632 125.991 132.632 128.451V140.198C132.632 142.657 134.625 144.651 137.085 144.651H180.06C182.519 144.651 184.512 142.657 184.512 140.198V128.451C184.512 125.991 182.519 123.998 180.06 123.998Z" fill="black"/>
<path opacity="0.1" d="M180.06 123.998H137.085C134.625 123.998 132.632 125.991 132.632 128.451V140.198C132.632 142.657 134.625 144.651 137.085 144.651H180.06C182.519 144.651 184.512 142.657 184.512 140.198V128.451C184.512 125.991 182.519 123.998 180.06 123.998Z" fill="black"/>
<path d="M231.94 123.998H188.965C186.506 123.998 184.512 125.991 184.512 128.451V140.198C184.512 142.657 186.506 144.651 188.965 144.651H231.94C234.399 144.651 236.392 142.657 236.392 140.198V128.451C236.392 125.991 234.399 123.998 231.94 123.998Z" fill="black"/>
<path d="M283.82 123.998H240.845C238.386 123.998 236.392 125.991 236.392 128.451V140.198C236.392 142.657 238.386 144.651 240.845 144.651H283.82C286.279 144.651 288.273 142.657 288.273 140.198V128.451C288.273 125.991 286.279 123.998 283.82 123.998Z" fill="black"/>
<path opacity="0.1" d="M283.82 123.998H240.845C238.386 123.998 236.392 125.991 236.392 128.451V140.198C236.392 142.657 238.386 144.651 240.845 144.651H283.82C286.279 144.651 288.273 142.657 288.273 140.198V128.451C288.273 125.991 286.279 123.998 283.82 123.998Z" fill="black"/>
<path d="M335.7 123.998H292.725C290.266 123.998 288.273 125.991 288.273 128.451V140.198C288.273 142.657 290.266 144.651 292.725 144.651H335.7C338.159 144.651 340.153 142.657 340.153 140.198V128.451C340.153 125.991 338.159 123.998 335.7 123.998Z" fill="black"/>
<path d="M387.58 123.998H344.605C342.146 123.998 340.153 125.991 340.153 128.451V140.198C340.153 142.657 342.146 144.651 344.605 144.651H387.58C390.039 144.651 392.033 142.657 392.033 140.198V128.451C392.033 125.991 390.039 123.998 387.58 123.998Z" fill="black"/>
<path opacity="0.1" d="M387.58 123.998H344.605C342.146 123.998 340.153 125.991 340.153 128.451V140.198C340.153 142.657 342.146 144.651 344.605 144.651H387.58C390.039 144.651 392.033 142.657 392.033 140.198V128.451C392.033 125.991 390.039 123.998 387.58 123.998Z" fill="black"/>
<path d="M344.605 123.998H387.58C390.039 123.998 392.033 122.004 392.033 119.545V107.798C392.033 105.339 390.039 103.345 387.58 103.345H344.605C342.146 103.345 340.153 105.339 340.153 107.798V119.545C340.153 122.004 342.146 123.998 344.605 123.998Z" fill="black"/>
<path d="M292.725 123.998H335.7C338.159 123.998 340.153 122.004 340.153 119.545V107.798C340.153 105.339 338.159 103.345 335.7 103.345H292.725C290.266 103.345 288.273 105.339 288.273 107.798V119.545C288.273 122.004 290.266 123.998 292.725 123.998Z" fill="black"/>
<path opacity="0.1" d="M292.725 123.998H335.7C338.159 123.998 340.153 122.004 340.153 119.545V107.798C340.153 105.339 338.159 103.345 335.7 103.345H292.725C290.266 103.345 288.273 105.339 288.273 107.798V119.545C288.273 122.004 290.266 123.998 292.725 123.998Z" fill="black"/>
<path d="M240.845 123.998H283.82C286.279 123.998 288.273 122.004 288.273 119.545V107.798C288.273 105.339 286.279 103.345 283.82 103.345H240.845C238.386 103.345 236.392 105.339 236.392 107.798V119.545C236.392 122.004 238.386 123.998 240.845 123.998Z" fill="black"/>
<path d="M188.965 123.998H231.94C234.399 123.998 236.392 122.004 236.392 119.545V107.798C236.392 105.339 234.399 103.345 231.94 103.345H188.965C186.506 103.345 184.512 105.339 184.512 107.798V119.545C184.512 122.004 186.506 123.998 188.965 123.998Z" fill="black"/>
<path opacity="0.1" d="M188.965 123.998H231.94C234.399 123.998 236.392 122.004 236.392 119.545V107.798C236.392 105.339 234.399 103.345 231.94 103.345H188.965C186.506 103.345 184.512 105.339 184.512 107.798V119.545C184.512 122.004 186.506 123.998 188.965 123.998Z" fill="black"/>
<path d="M137.085 123.998H180.06C182.519 123.998 184.512 122.004 184.512 119.545V107.798C184.512 105.339 182.519 103.345 180.06 103.345H137.085C134.625 103.345 132.632 105.339 132.632 107.798V119.545C132.632 122.004 134.625 123.998 137.085 123.998Z" fill="black"/>
<path d="M85.2044 123.998H128.179C130.638 123.998 132.632 122.004 132.632 119.545V107.798C132.632 105.339 130.638 103.345 128.179 103.345H85.2044C82.7453 103.345 80.7518 105.339 80.7518 107.798V119.545C80.7518 122.004 82.7453 123.998 85.2044 123.998Z" fill="black"/>
<path opacity="0.1" d="M85.2044 123.998H128.179C130.638 123.998 132.632 122.004 132.632 119.545V107.798C132.632 105.339 130.638 103.345 128.179 103.345H85.2044C82.7453 103.345 80.7518 105.339 80.7518 107.798V119.545C80.7518 122.004 82.7453 123.998 85.2044 123.998Z" fill="black"/>
<path d="M128.179 82.6921H85.2044C82.7453 82.6921 80.7518 84.6858 80.7518 87.1451V98.892C80.7518 101.351 82.7453 103.345 85.2044 103.345H128.179C130.638 103.345 132.632 101.351 132.632 98.892V87.1451C132.632 84.6858 130.638 82.6921 128.179 82.6921Z" fill="black"/>
<path d="M180.06 82.6921H137.085C134.625 82.6921 132.632 84.6858 132.632 87.1451V98.892C132.632 101.351 134.625 103.345 137.085 103.345H180.06C182.519 103.345 184.512 101.351 184.512 98.892V87.1451C184.512 84.6858 182.519 82.6921 180.06 82.6921Z" fill="black"/>
<path opacity="0.1" d="M180.06 82.6921H137.085C134.625 82.6921 132.632 84.6858 132.632 87.1451V98.892C132.632 101.351 134.625 103.345 137.085 103.345H180.06C182.519 103.345 184.512 101.351 184.512 98.892V87.1451C184.512 84.6858 182.519 82.6921 180.06 82.6921Z" fill="black"/>
<path d="M231.94 82.6921H188.965C186.506 82.6921 184.512 84.6858 184.512 87.1451V98.892C184.512 101.351 186.506 103.345 188.965 103.345H231.94C234.399 103.345 236.392 101.351 236.392 98.892V87.1451C236.392 84.6858 234.399 82.6921 231.94 82.6921Z" fill="black"/>
<path d="M283.82 82.6921H240.845C238.386 82.6921 236.392 84.6858 236.392 87.1451V98.892C236.392 101.351 238.386 103.345 240.845 103.345H283.82C286.279 103.345 288.273 101.351 288.273 98.892V87.1451C288.273 84.6858 286.279 82.6921 283.82 82.6921Z" fill="black"/>
<path opacity="0.1" d="M283.82 82.6921H240.845C238.386 82.6921 236.392 84.6858 236.392 87.1451V98.892C236.392 101.351 238.386 103.345 240.845 103.345H283.82C286.279 103.345 288.273 101.351 288.273 98.892V87.1451C288.273 84.6858 286.279 82.6921 283.82 82.6921Z" fill="black"/>
<path d="M335.7 82.6921H292.725C290.266 82.6921 288.273 84.6858 288.273 87.1451V98.892C288.273 101.351 290.266 103.345 292.725 103.345H335.7C338.159 103.345 340.153 101.351 340.153 98.892V87.1451C340.153 84.6858 338.159 82.6921 335.7 82.6921Z" fill="black"/>
<path d="M387.58 82.6921H344.605C342.146 82.6921 340.153 84.6858 340.153 87.1451V98.892C340.153 101.351 342.146 103.345 344.605 103.345H387.58C390.039 103.345 392.033 101.351 392.033 98.892V87.1451C392.033 84.6858 390.039 82.6921 387.58 82.6921Z" fill="black"/>
<path opacity="0.1" d="M387.58 82.6921H344.605C342.146 82.6921 340.153 84.6858 340.153 87.1451V98.892C340.153 101.351 342.146 103.345 344.605 103.345H387.58C390.039 103.345 392.033 101.351 392.033 98.892V87.1451C392.033 84.6858 390.039 82.6921 387.58 82.6921Z" fill="black"/>
<path d="M387.58 13.8877H340.576C338.117 13.8877 336.123 15.8814 336.123 18.3406V31.6894C336.123 34.1487 338.117 36.1424 340.576 36.1424H387.58C390.039 36.1424 392.033 34.1487 392.033 31.6894V18.3406C392.033 15.8814 390.039 13.8877 387.58 13.8877Z" fill="url(#paint0_linear)"/>
<path d="M342.591 35.3416L385.566 35.3416C388.025 35.3416 390.018 33.3479 390.018 30.8886V19.1417C390.018 16.6824 388.025 14.6887 385.566 14.6887L342.591 14.6887C340.131 14.6887 338.138 16.6824 338.138 19.1417V30.8886C338.138 33.3479 340.131 35.3416 342.591 35.3416Z" fill="black"/>
<path d="M292.725 82.6921H335.7C338.159 82.6921 340.153 80.6985 340.153 78.2392V66.4923C340.153 64.033 338.159 62.0393 335.7 62.0393L292.725 62.0393C290.266 62.0393 288.273 64.033 288.273 66.4923V78.2392C288.273 80.6985 290.266 82.6921 292.725 82.6921Z" fill="black"/>
<path opacity="0.1" d="M292.725 82.6921H335.7C338.159 82.6921 340.153 80.6985 340.153 78.2392V66.4923C340.153 64.033 338.159 62.0393 335.7 62.0393L292.725 62.0393C290.266 62.0393 288.273 64.033 288.273 66.4923V78.2392C288.273 80.6985 290.266 82.6921 292.725 82.6921Z" fill="black"/>
<path d="M240.845 82.6921H283.82C286.279 82.6921 288.273 80.6985 288.273 78.2392V66.4923C288.273 64.033 286.279 62.0393 283.82 62.0393L240.845 62.0393C238.386 62.0393 236.392 64.033 236.392 66.4923V78.2392C236.392 80.6985 238.386 82.6921 240.845 82.6921Z" fill="black"/>
<path d="M188.965 82.6921H231.94C234.399 82.6921 236.392 80.6985 236.392 78.2392V66.4923C236.392 64.033 234.399 62.0393 231.94 62.0393L188.965 62.0393C186.506 62.0393 184.512 64.033 184.512 66.4923V78.2392C184.512 80.6985 186.506 82.6921 188.965 82.6921Z" fill="black"/>
<path opacity="0.1" d="M188.965 82.6921H231.94C234.399 82.6921 236.392 80.6985 236.392 78.2392V66.4923C236.392 64.033 234.399 62.0393 231.94 62.0393L188.965 62.0393C186.506 62.0393 184.512 64.033 184.512 66.4923V78.2392C184.512 80.6985 186.506 82.6921 188.965 82.6921Z" fill="black"/>
<path d="M137.085 82.6921H180.06C182.519 82.6921 184.512 80.6985 184.512 78.2392V66.4923C184.512 64.033 182.519 62.0393 180.06 62.0393L137.085 62.0393C134.625 62.0393 132.632 64.033 132.632 66.4923V78.2392C132.632 80.6985 134.625 82.6921 137.085 82.6921Z" fill="black"/>
<path d="M85.2044 82.6921H128.179C130.638 82.6921 132.632 80.6985 132.632 78.2392V66.4923C132.632 64.033 130.638 62.0393 128.179 62.0393L85.2044 62.0393C82.7453 62.0393 80.7518 64.033 80.7518 66.4923V78.2392C80.7518 80.6985 82.7453 82.6921 85.2044 82.6921Z" fill="black"/>
<path opacity="0.1" d="M85.2044 82.6921H128.179C130.638 82.6921 132.632 80.6985 132.632 78.2392V66.4923C132.632 64.033 130.638 62.0393 128.179 62.0393L85.2044 62.0393C82.7453 62.0393 80.7518 64.033 80.7518 66.4923V78.2392C80.7518 80.6985 82.7453 82.6921 85.2044 82.6921Z" fill="black"/>
<path d="M251.342 327C390.154 327 502.684 301.403 502.684 269.827C502.684 238.251 390.154 212.654 251.342 212.654C112.53 212.654 0 238.251 0 269.827C0 301.403 112.53 327 251.342 327Z" fill="#F5F5F5"/>
<path d="M57.3956 244.167C57.3956 244.167 61.9289 228.849 56.5494 217.57C54.2693 212.855 53.5818 207.527 54.5901 202.388C55.0877 199.951 55.8077 197.565 56.7409 195.26" stroke="#535461" stroke-width="2" stroke-miterlimit="10"/>
<path d="M53.4064 188.137C53.4064 190.016 56.8063 195.461 56.8063 195.461C56.8063 195.461 60.2062 190.016 60.2062 188.137C60.2062 187.235 59.848 186.371 59.2104 185.733C58.5728 185.095 57.708 184.737 56.8063 184.737C55.9046 184.737 55.0398 185.095 54.4022 185.733C53.7646 186.371 53.4064 187.235 53.4064 188.137V188.137Z" fill="#163300"/>
<path d="M47.7852 198.539C48.7926 200.116 54.6203 202.836 54.6203 202.836C54.6203 202.836 54.5145 196.419 53.492 194.842C52.9994 194.091 52.2293 193.565 51.3502 193.379C50.471 193.194 49.5543 193.364 48.8002 193.853C48.0461 194.341 47.5161 195.108 47.3259 195.987C47.1357 196.865 47.3008 197.783 47.7852 198.539Z" fill="#163300"/>
<path d="M48.032 216.311C49.7093 217.157 56.091 216.573 56.091 216.573C56.091 216.573 52.7616 211.087 51.0843 210.241C50.2821 209.857 49.3614 209.803 48.5197 210.09C47.6781 210.377 46.9823 210.982 46.5817 211.776C46.1811 212.57 46.1075 213.49 46.3768 214.337C46.646 215.185 47.2366 215.894 48.0219 216.311H48.032Z" fill="#163300"/>
<path d="M51.2455 229.715C52.7566 230.833 59.1535 231.337 59.1535 231.337C59.1535 231.337 56.7962 225.368 55.2902 224.25C54.5631 223.772 53.6805 223.591 52.8241 223.744C51.9676 223.897 51.2025 224.373 50.6861 225.073C50.1698 225.773 49.9416 226.645 50.0485 227.508C50.1553 228.372 50.5892 229.162 51.2606 229.715H51.2455Z" fill="#163300"/>
<path d="M61.7576 203.199C60.4127 204.508 54.1367 205.863 54.1367 205.863C54.1367 205.863 55.673 199.632 57.0178 198.308C57.338 197.996 57.7163 197.751 58.1312 197.586C58.546 197.421 58.9893 197.339 59.4358 197.346C59.8822 197.352 60.323 197.446 60.7331 197.623C61.1431 197.8 61.5144 198.055 61.8256 198.376C62.1368 198.696 62.3819 199.074 62.5469 199.489C62.7119 199.904 62.7936 200.347 62.7873 200.794C62.781 201.24 62.6868 201.681 62.5101 202.091C62.3334 202.501 62.0777 202.872 61.7576 203.184V203.199Z" fill="#163300"/>
<path d="M65.3187 218.91C63.6414 219.756 57.2596 219.172 57.2596 219.172C57.2596 219.172 60.589 213.686 62.2663 212.84C63.0657 212.479 63.9734 212.442 64.7999 212.735C65.6265 213.027 66.3079 213.628 66.7019 214.412C67.0959 215.195 67.172 216.101 66.9142 216.939C66.6564 217.777 66.0848 218.483 65.3187 218.91V218.91Z" fill="#163300"/>
<path d="M66.6786 234.687C65.1676 235.805 58.7707 236.309 58.7707 236.309C58.7707 236.309 61.128 230.34 62.634 229.221C63.361 228.744 64.2436 228.563 65.1001 228.716C65.9565 228.869 66.7217 229.345 67.238 230.045C67.7544 230.745 67.9826 231.617 67.8757 232.48C67.7688 233.344 67.335 234.134 66.6635 234.687H66.6786Z" fill="#163300"/>
<path d="M300.694 157.354C300.694 157.354 317.26 173.922 307.906 198.504C298.553 223.086 323.939 263.989 323.939 263.989C323.939 263.989 323.667 263.948 323.163 263.858C289.139 257.828 272.235 218.91 291.154 190.006C298.185 179.257 303.963 166.653 300.694 157.354Z" fill="black"/>
<path opacity="0.2" d="M300.694 157.354C300.694 157.354 317.26 173.922 307.906 198.504C298.553 223.086 323.939 263.989 323.939 263.989C323.939 263.989 323.667 263.948 323.163 263.858C289.139 257.828 272.235 218.91 291.154 190.006C298.185 179.257 303.963 166.653 300.694 157.354Z" fill="#70FF00"/>
<path d="M300.694 157.354C300.694 157.354 310.047 177.66 300.694 194.227C291.34 210.795 299.092 257.284 323.954 263.963" stroke="#535461" stroke-miterlimit="10"/>
<path d="M271.192 224.355C271.192 224.355 290.096 221.333 291.819 238.288C293.541 255.244 328.165 257.576 328.165 257.576L327.515 258.009C298.926 276.778 271.605 269.963 275.715 245.043C277.247 235.78 277.111 226.466 271.192 224.355Z" fill="black"/>
<path opacity="0.2" d="M271.192 224.355C271.192 224.355 290.096 221.333 291.819 238.288C293.541 255.244 328.165 257.576 328.165 257.576L327.515 258.009C298.926 276.778 271.605 269.963 275.715 245.043C277.247 235.78 277.111 226.466 271.192 224.355Z" fill="#70FF00"/>
<path d="M271.192 224.355C271.192 224.355 285.865 227.574 284.661 240.918C283.457 254.262 306.451 270.255 328.165 257.576" stroke="#535461" stroke-miterlimit="10"/>
<path d="M415.006 263.354C415.006 263.354 386.951 257.743 379.466 250.257C371.981 242.772 338.314 229.68 334.572 239.034C330.829 248.388 284.072 280.194 315.895 285.805C347.718 291.417 390.713 293.286 400.067 289.548C409.42 285.81 415.006 263.354 415.006 263.354Z" fill="#A8A8A8"/>
<path opacity="0.2" d="M315.895 282.329C347.693 287.941 390.713 289.81 400.067 286.072C407.189 283.221 412.155 269.535 414.095 263.163L415.031 263.359C415.031 263.359 409.42 285.805 400.067 289.553C390.713 293.301 347.683 291.422 315.895 285.81C306.718 284.188 304.094 280.385 305.081 275.569C305.821 278.708 309.04 281.12 315.895 282.329Z" fill="black"/>
<path d="M471.772 14.19C471.272 12.9439 470.475 11.839 469.45 10.9712C461.92 4.11045 449.746 6.19085 440.397 1.9948C438.242 1.02764 436.035 -0.312277 433.698 0.0554445C430.434 0.559172 427.397 4.28676 424.551 2.63453L424.753 3.25412L424.551 3.14833L426.647 9.52553C427.452 11.9736 428.299 14.4923 429.86 16.5324C427.548 18.5486 425.779 21.1123 424.714 23.9891C423.648 26.866 423.322 29.964 423.763 32.9997C424.204 36.0355 425.4 38.9121 427.24 41.3664C429.081 43.8206 431.507 45.7741 434.298 47.0482C434.398 47.2598 434.494 47.4764 434.59 47.693L434.857 47.8038C435.477 49.2303 435.939 50.72 436.237 52.2467C433.814 52.5842 429.588 55.2691 425.438 59.2183L417.137 58.9412C411.768 58.762 406.573 56.995 402.207 53.8637L377.345 36.0065C375.574 36.1809 373.906 36.919 372.585 38.1121C369.503 34.8983 366.884 31.5636 367.105 29.5487C367.105 29.5487 355.551 7.92368 351.35 18.7337C347.149 29.5437 359.228 40.8977 359.228 40.8977L366.889 50.8262C366.586 52.5669 366.394 54.3251 366.314 56.0901C375.769 66.9052 408.851 76.6876 408.851 76.6876L414.009 76.9394L414.039 77.1913C413.722 78.545 413.566 79.9315 413.576 81.3219C413.576 81.5234 413.576 81.7299 413.576 81.9415C413.576 82.153 413.576 82.2185 413.576 82.3545C413.838 99.6022 416.2 152.373 416.2 152.373C416.658 152.166 417.137 151.98 417.62 151.803L417.253 156.493C417.253 156.493 395.196 159.581 378.917 165.762C362.638 171.943 362.114 179.151 362.114 179.151V242.752C357.465 245.139 350.126 248.293 346.358 246.595C342.268 244.772 340.027 246.303 339.619 247.9C339.541 248.216 339.541 248.546 339.619 248.862C339.653 249.004 339.706 249.141 339.775 249.27V249.3C339.85 249.433 339.943 249.555 340.052 249.663C341.629 251.209 375.764 264.593 383.641 262.533C383.885 262.469 384.124 262.388 384.357 262.291C384.432 262.261 384.498 262.221 384.573 262.185C384.649 262.15 384.865 262.049 385.001 261.969C385.137 261.888 385.158 261.863 385.233 261.813C385.309 261.762 385.47 261.656 385.581 261.571C385.691 261.485 385.727 261.44 385.797 261.374C385.868 261.309 386.004 261.198 386.094 261.097C386.185 260.997 386.225 260.946 386.291 260.871C386.356 260.795 386.472 260.669 386.553 260.558C386.633 260.448 386.664 260.392 386.724 260.312C386.784 260.231 386.885 260.08 386.956 259.959C387.026 259.838 387.051 259.788 387.097 259.697C387.142 259.606 387.238 259.44 387.303 259.304C387.369 259.168 387.384 259.128 387.419 259.037C387.454 258.946 387.545 258.75 387.6 258.604C387.656 258.458 387.661 258.428 387.696 258.337C387.731 258.246 387.807 258.02 387.852 257.833C387.852 257.748 387.898 257.662 387.923 257.576C387.968 257.4 388.019 257.229 388.059 257.073C388.059 256.992 388.094 256.911 388.109 256.831C388.149 256.639 388.19 256.448 388.22 256.257C388.22 256.186 388.22 256.11 388.255 256.04C388.29 255.833 388.321 255.622 388.346 255.415V255.234C388.371 255.007 388.396 254.781 388.416 254.554V254.413C388.437 254.168 388.452 253.923 388.462 253.677V253.577C388.462 253.315 388.462 253.053 388.462 252.791V252.74C388.452 249.669 388.114 246.608 387.454 243.608V243.608L389.434 189.442C399.749 189.602 410.065 189.222 420.34 188.304L421.469 214.155C421.469 214.155 421.469 231.146 427.246 238.868C432.192 245.477 437.904 274.708 439.445 283.004C437.325 287.034 433.265 292.072 426.193 291.9C426.193 291.9 412.891 290.752 413.641 294.419C413.662 294.515 413.691 294.609 413.727 294.701V294.701C413.769 294.807 413.818 294.909 413.873 295.008V295.008C413.928 295.104 413.989 295.2 414.059 295.3L414.1 295.361C414.175 295.467 414.261 295.577 414.357 295.693V295.719C414.447 295.824 414.543 295.93 414.649 296.036L414.739 296.127C414.86 296.247 414.981 296.368 415.122 296.494C421.947 302.675 461.86 303.703 461.86 303.703V303.562C461.86 303.521 461.86 303.471 461.86 303.416C461.86 301.627 461.598 292.248 459.21 285.186H459.764C459.764 285.186 453.987 233.181 449.262 227.005C449.262 227.005 448.008 199.582 450.839 182.4L451.343 182.208C464.58 177.262 465.521 165.082 464.156 156.136C466.675 156.941 468.146 157.491 468.146 157.491C468.146 157.491 468.1 157.103 468.015 156.413L468.146 156.463C468.146 156.463 467.894 154.826 467.476 152.277C466.529 145.26 464.695 132.999 462.741 127.211C462.424 125.937 462.122 124.849 461.845 124.028C460.717 120.55 459.942 116.967 459.533 113.334C458.997 108.624 458.727 103.889 458.722 99.1488C458.765 92.8161 459.249 86.494 460.172 80.2288C460.973 74.7583 461.683 68.5322 461.633 64.185C461.688 62.6669 461.582 61.1471 461.316 59.6515C460.616 56.4427 457.518 54.3573 454.299 53.0275C454.093 52.9418 453.881 52.8713 453.67 52.7907C453.75 51.5767 453.851 50.1965 453.982 48.7609C454.368 49.0282 454.804 49.2142 455.263 49.3078C455.723 49.4013 456.197 49.4003 456.657 49.3049C458.042 49.0027 459.034 47.8492 459.915 46.7863C464.569 41.069 469.35 35.1099 471.138 28.0073C471.86 24.8355 472.198 21.5883 472.145 18.3357C472.145 18.1578 472.145 17.9798 472.145 17.8018C472.231 16.5854 472.105 15.3632 471.772 14.19V14.19Z" fill="url(#paint1_linear)"/>
<path d="M429.397 42.0612C429.397 42.0612 436.448 52.6395 434.937 57.6768C433.426 62.7141 451.559 59.6917 451.559 59.6917C451.559 59.6917 452.063 40.0463 455.589 35.5127C459.115 30.9792 429.397 42.0612 429.397 42.0612Z" fill="#F7C4A7"/>
<path d="M382.805 48.8615C382.805 48.8615 368.198 36.772 368.702 32.2384C368.702 32.2384 357.621 11.0819 353.591 21.6602C349.562 32.2385 361.147 43.3205 361.147 43.3205L375.25 61.9584L382.805 48.8615Z" fill="#F7C4A7"/>
<path d="M367.946 238.515C367.946 238.515 354.347 247.079 348.806 244.56C343.266 242.041 341.251 246.071 342.762 247.582C344.273 249.093 377.013 262.19 384.568 260.175C392.124 258.161 388.28 241.658 388.28 241.658L367.946 238.515Z" fill="#535461"/>
<path d="M439.974 275.287C439.974 275.287 436.7 289.14 425.367 288.888C425.367 288.888 408.242 287.377 414.79 293.422C421.338 299.466 459.618 300.474 459.618 300.474C459.618 300.474 459.618 279.821 452.567 275.287C445.515 270.754 439.974 275.287 439.974 275.287Z" fill="#535461"/>
<path d="M419.323 177.564L420.834 212.825C420.834 212.825 420.834 229.448 426.375 237.004C431.915 244.56 438.463 282.34 438.463 282.34H457.603C457.603 282.34 452.063 231.463 447.53 225.418C447.53 225.418 445.515 180.587 452.567 170.512L419.323 177.564Z" fill="#575988"/>
<path opacity="0.1" d="M419.323 177.564L420.834 212.825C420.834 212.825 420.834 229.448 426.375 237.004C431.915 244.56 438.463 282.34 438.463 282.34H457.603C457.603 282.34 452.063 231.463 447.53 225.418C447.53 225.418 445.515 180.587 452.567 170.512L419.323 177.564Z" fill="black"/>
<path d="M459.115 145.829C459.115 145.829 470.699 173.534 449.544 181.594C428.389 189.654 390.109 188.646 390.109 188.646L388.094 247.078C388.094 247.078 364.421 250.101 363.917 242.545V178.572C363.917 178.572 364.421 171.519 380.035 165.475C395.649 159.43 416.804 156.407 416.804 156.407L417.812 143.311L459.115 145.829Z" fill="#575988"/>
<path opacity="0.1" d="M440.554 54.5587C444.577 54.1133 448.648 54.6884 452.39 56.2311C455.478 57.5307 458.435 59.5708 459.12 62.7091C459.915 66.4266 459.034 74.7633 458.022 81.8205C456.4 92.88 456.193 104.101 457.407 115.213C457.911 119.842 458.641 123.877 459.623 125.675C462.645 131.216 465.668 157.41 465.668 157.41C465.668 157.41 432.424 144.817 415.802 152.373C415.802 152.373 413.535 100.741 413.284 83.8656C413.087 70.7989 429.654 55.9087 435.194 55.405C438.438 55.1128 437.325 54.8962 440.554 54.5587Z" fill="black"/>
<path d="M440.554 53.5514C444.577 53.1059 448.648 53.6811 452.39 55.2238C455.478 56.5234 458.435 58.5635 459.12 61.7017C459.915 65.4193 459.034 73.756 458.022 80.8132C456.4 91.8726 456.193 103.094 457.407 114.205C457.799 117.757 458.541 121.262 459.623 124.668C461.89 131.468 465.668 156.403 465.668 156.403C465.668 156.403 432.424 143.809 415.802 151.365C415.802 151.365 413.535 99.7332 413.284 82.8583C413.087 69.7916 429.654 54.9014 435.194 54.3977C438.438 54.1055 437.325 53.8889 440.554 53.5514Z" fill="#FCA311"/>
<path opacity="0.1" d="M449.544 81.3521L413.782 79.3372C413.782 79.3372 411.506 61.8025 416.668 61.9838L452.063 63.2179C452.063 63.2179 459.618 72.2851 449.544 81.3521Z" fill="black"/>
<path d="M449.544 80.3446L408.745 78.3297C408.745 78.3297 377.013 68.7588 367.946 58.1805C367.946 58.1805 368.45 39.5426 378.524 38.5352L402.354 56.0095C406.519 59.0645 411.506 60.7952 416.668 60.9762L452.063 62.2104C452.063 62.2104 459.618 71.2775 449.544 80.3446Z" fill="#FCA311"/>
<path opacity="0.1" d="M451.307 44.3279C451.907 39.5526 454.073 37.9658 455.589 36.0164C459.115 31.4829 429.397 42.5649 429.397 42.5649C430.933 44.9248 432.28 47.4024 433.426 49.9747C435.795 51.0664 438.373 51.6318 440.982 51.632C445.344 51.632 448.174 46.912 451.307 44.3279Z" fill="black"/>
<path d="M440.982 51.1283C450.996 51.1283 459.115 43.0093 459.115 32.9941C459.115 22.9788 450.996 14.8599 440.982 14.8599C430.967 14.8599 422.849 22.9788 422.849 32.9941C422.849 43.0093 430.967 51.1283 440.982 51.1283Z" fill="#F7C4A7"/>
<path opacity="0.1" d="M429.533 20.2851C427.604 18.1745 426.672 15.3637 425.795 12.6385L423.781 6.39733C426.511 8.00926 429.422 4.38242 432.555 3.87869C434.796 3.52104 436.917 4.83074 438.982 5.77271C447.948 9.87306 459.633 7.83799 466.846 14.5527C467.832 15.4065 468.596 16.4869 469.072 17.701C469.405 18.8451 469.541 20.0374 469.475 21.2271C469.534 24.4065 469.218 27.5817 468.533 30.6871C466.821 37.6335 462.237 43.4667 457.77 49.0581C456.923 50.1209 455.971 51.2493 454.642 51.5465C452.048 52.1258 450.043 49.325 449.041 46.8668C447.713 43.6095 446.733 40.2207 446.119 36.757C445.857 35.2912 445.651 33.78 444.92 32.4854C443.359 29.7199 439.511 27.1006 437.174 24.9547C434.837 22.8088 431.678 22.6274 429.533 20.2851Z" fill="black"/>
<path d="M429.533 19.7815C427.604 17.6708 426.672 14.86 425.795 12.1349L423.781 5.89367C426.511 7.5056 429.422 3.87876 432.555 3.37503C434.796 3.01738 436.917 4.32708 438.982 5.26905C447.948 9.3694 459.633 7.33433 466.846 14.049C467.832 14.9028 468.596 15.9832 469.072 17.1973C469.405 18.3414 469.541 19.5337 469.475 20.7234C469.534 23.9028 469.218 27.0781 468.533 30.1834C466.821 37.1298 462.237 42.963 457.77 48.5544C456.923 49.6173 455.971 50.7456 454.642 51.0428C452.048 51.6221 450.043 48.8214 449.041 46.3632C447.713 43.1058 446.733 39.717 446.119 36.2534C445.857 34.7875 445.651 33.2763 444.92 31.9817C443.359 29.2163 439.511 26.5969 437.174 24.451C434.837 22.3051 431.678 22.1238 429.533 19.7815Z" fill="black"/>
<path d="M445.767 38.2833C446.601 38.2833 447.278 36.8174 447.278 35.0091C447.278 33.2008 446.601 31.7349 445.767 31.7349C444.932 31.7349 444.256 33.2008 444.256 35.0091C444.256 36.8174 444.932 38.2833 445.767 38.2833Z" fill="#F7C4A7"/>
<path opacity="0.1" d="M454.833 122.406C454.833 122.406 453.826 125.428 448.789 124.925C443.752 124.421 429.145 123.413 429.145 124.925" fill="black"/>
<path opacity="0.5" d="M414.79 292.918C413.883 292.082 413.43 291.407 413.324 290.817C413.193 291.472 413.596 292.329 414.79 293.422C421.338 299.466 459.618 300.474 459.618 300.474C459.618 300.474 459.618 300.298 459.618 299.97C459.371 299.965 421.318 298.942 414.79 292.918Z" fill="white"/>
<path opacity="0.5" d="M384.568 259.168C377.013 261.183 344.273 248.086 342.762 246.575C342.56 246.37 342.416 246.117 342.344 245.839C342.257 246.141 342.249 246.461 342.322 246.766C342.396 247.072 342.547 247.353 342.762 247.582C344.273 249.093 377.013 262.19 384.568 260.175C388.457 259.138 389.323 254.267 389.253 249.779C389.177 253.959 388.165 258.201 384.568 259.168Z" fill="white"/>
<path d="M46.0827 240.384C46.0827 240.384 64.8805 239.805 70.5419 235.77C76.2034 231.735 99.4538 226.919 100.859 233.387C102.264 239.855 129.111 265.565 107.87 265.757C86.6298 265.948 58.5642 262.452 52.9077 259.007C47.2513 255.561 46.0827 240.384 46.0827 240.384Z" fill="#A8A8A8"/>
<path opacity="0.2" d="M108.268 263.485C87.0479 263.656 58.9621 260.181 53.3056 256.735C48.9991 254.111 47.2613 244.701 46.7123 240.359H46.0827C46.0827 240.359 47.2714 255.521 52.9279 258.962C58.5843 262.402 86.6701 265.908 107.871 265.757C113.995 265.706 116.111 263.53 115.995 260.301C115.164 262.231 112.827 263.45 108.268 263.485Z" fill="black"/>
<path d="M476.572 288.717H519.547C522.007 288.717 524 286.723 524 284.264V272.517C524 270.058 522.007 268.064 519.547 268.064H476.572C474.113 268.064 472.12 270.058 472.12 272.517V284.264C472.12 286.723 474.113 288.717 476.572 288.717Z" fill="black"/>
<path opacity="0.1" d="M476.572 288.717H519.547C522.007 288.717 524 286.723 524 284.264V272.517C524 270.058 522.007 268.064 519.547 268.064H476.572C474.113 268.064 472.12 270.058 472.12 272.517V284.264C472.12 286.723 474.113 288.717 476.572 288.717Z" fill="black"/>
<path d="M519.547 248.418H476.572C474.113 248.418 472.12 250.412 472.12 252.871V264.618C472.12 267.078 474.113 269.071 476.572 269.071H519.547C522.007 269.071 524 267.078 524 264.618V252.871C524 250.412 522.007 248.418 519.547 248.418Z" fill="black"/>
<path d="M476.572 248.418H519.547C522.007 248.418 524 246.425 524 243.966V232.219C524 229.759 522.007 227.766 519.547 227.766H476.572C474.113 227.766 472.12 229.759 472.12 232.219V243.966C472.12 246.425 474.113 248.418 476.572 248.418Z" fill="black"/>
<path opacity="0.1" d="M476.572 248.418H519.547C522.007 248.418 524 246.425 524 243.966V232.219C524 229.759 522.007 227.766 519.547 227.766H476.572C474.113 227.766 472.12 229.759 472.12 232.219V243.966C472.12 246.425 474.113 248.418 476.572 248.418Z" fill="black"/>
<path d="M519.547 207.113H476.572C474.113 207.113 472.12 209.106 472.12 211.566V223.313C472.12 225.772 474.113 227.766 476.572 227.766H519.547C522.007 227.766 524 225.772 524 223.313V211.566C524 209.106 522.007 207.113 519.547 207.113Z" fill="black"/>
</g>
<defs>
<linearGradient id="paint0_linear" x1="364.078" y1="36.1424" x2="364.078" y2="13.8877" gradientUnits="userSpaceOnUse">
<stop stop-color="#808080" stop-opacity="0.25"/>
<stop offset="0.54" stop-color="#808080" stop-opacity="0.12"/>
<stop offset="1" stop-color="#808080" stop-opacity="0.1"/>
</linearGradient>
<linearGradient id="paint1_linear" x1="117788" y1="221228" x2="117788" y2="38091.2" gradientUnits="userSpaceOnUse">
<stop stop-color="#808080" stop-opacity="0.25"/>
<stop offset="0.54" stop-color="#808080" stop-opacity="0.12"/>
<stop offset="1" stop-color="#808080" stop-opacity="0.1"/>
</linearGradient>
<clipPath id="clip0">
<rect width="524" height="327" fill="white"/>
</clipPath>
</defs>
</svg>
