<?xml version="1.0" encoding="utf-8"?>
<!-- Generator: Adobe Illustrator 24.0.1, SVG Export Plug-In . SVG Version: 6.00 Build 0)  -->
<svg version="1.1" id="Camada_1" xmlns="http://www.w3.org/2000/svg" xmlns:xlink="http://www.w3.org/1999/xlink" x="0px" y="0px"
	 viewBox="0 0 460.8 259.2" style="enable-background:new 0 0 460.8 259.2;" xml:space="preserve">
<style type="text/css">
	.st0{fill-rule:evenodd;clip-rule:evenodd;fill:#02A3D5;stroke:#FFFFFF;stroke-width:0.216;stroke-miterlimit:22.9256;}
	.st1{fill-rule:evenodd;clip-rule:evenodd;fill:#0069B1;stroke:#0069B1;stroke-width:0.216;stroke-miterlimit:22.9256;}
	.st2{fill-rule:evenodd;clip-rule:evenodd;fill:#FFFFFF;stroke:#FFFFFF;stroke-width:0.216;stroke-miterlimit:22.9256;}
	.st3{fill-rule:evenodd;clip-rule:evenodd;fill:#32A0DA;stroke:#32A0DA;stroke-width:0.216;stroke-miterlimit:22.9256;}
	.st4{fill-rule:evenodd;clip-rule:evenodd;fill:#0085C8;stroke:#0085C8;stroke-width:0.216;stroke-miterlimit:22.9256;}
	.st5{fill-rule:evenodd;clip-rule:evenodd;fill:#0073B8;stroke:#0073B8;stroke-width:0.216;stroke-miterlimit:22.9256;}
	.st6{fill-rule:evenodd;clip-rule:evenodd;fill:#E9B820;stroke:#E9B820;stroke-width:0.216;stroke-miterlimit:22.9256;}
	.st7{fill-rule:evenodd;clip-rule:evenodd;fill:#E09C27;stroke:#E09C27;stroke-width:0.216;stroke-miterlimit:22.9256;}
	.st8{fill-rule:evenodd;clip-rule:evenodd;fill:#E85E25;stroke:#FFFFFF;stroke-width:0.216;stroke-miterlimit:22.9256;}
	.st9{fill-rule:evenodd;clip-rule:evenodd;fill:#DE4826;stroke:#DE4826;stroke-width:0.216;stroke-miterlimit:22.9256;}
</style>
<g>
	<g>
		<polygon class="st0" points="143.7,107.2 158.3,100.1 164.2,115.6 159.1,120.2 152.2,121.4 		"/>
		<polygon class="st1" points="151.8,105 157.7,102.2 162.6,114.9 158.4,118.7 		"/>
		<polygon class="st2" points="147.9,109 157.1,104.5 157.9,106.3 154.6,110.1 158.4,108.3 160.7,114.1 157.6,117.1 153.2,117.8 
			151.6,115.1 153.4,114.2 154.3,115.5 156.4,115 158.3,113.6 157.4,111.1 151,114.2 150,112.6 153.2,108.7 149,110.8 		"/>
		<polygon class="st2" points="144.8,102 147.1,100.9 147.5,101.8 146.3,102.4 146.8,103.4 148,102.8 148.4,103.6 146.2,104.7 		"/>
		<polygon class="st2" points="148,100.4 150.3,99.4 150.7,100.3 150,100.6 151.2,101.2 151.6,102.1 149.4,103.2 148.9,102.3 
			149.7,101.9 148.4,101.2 		"/>
		<polygon class="st2" points="151.1,98.9 153.4,97.8 153.8,98.7 153.2,99.1 154.3,99.7 154.7,100.6 152.5,101.6 152,100.8 
			152.8,100.4 151.5,99.6 		"/>
	</g>
	<g>
		<path class="st3" d="M284.2,106.9l2.9-5.2c0.9-1.7,1.4-2.6,1.8-3.1c0.2-0.2,0.6-0.1,0.7,0c0-0.1-0.4-0.3-0.4-0.3
			c-0.9-0.1-2-0.2-3-0.2c-0.5-0.1-1,0.1-1.3,0.7l-4.6,8.2c-0.1,0.2-0.1,0.5,0.1,0.7l1.9,2.8c0.1,0.1,0.4,0.2,0.5,0.2
			c0,0,0.1,0,0.2,0c-0.2-0.1-0.7-0.3-0.5-0.7C282.8,109.4,283.3,108.6,284.2,106.9L284.2,106.9z"/>
		<path class="st4" d="M288.9,106.1l-4.7,0.8c-1,1.6-1.4,2.5-1.7,3.1c-0.2,0.3,0.3,0.6,0.5,0.7l6.8-2.2L288.9,106.1L288.9,106.1z"/>
		<path class="st5" d="M287.2,101.7l1.8,4.4l0.9,2.3l1.4,3.6c0.2,0.5,1.4,0.6,1.5,0.1l-1-4.3l-0.5-2l-1.7-7.1
			c-0.2-0.1-0.6-0.2-0.7,0C288.6,99.1,288.1,100,287.2,101.7L287.2,101.7z"/>
		<path class="st4" d="M295.2,105.1l-3.8,0.6l0.5,2l4.2-1.4C296.3,106,295.7,105,295.2,105.1L295.2,105.1z"/>
	</g>
	<g>
		<polygon class="st6" points="306.1,99.2 319.1,107 310.1,119.3 303.8,117.8 299.4,113 		"/>
		<polygon class="st2" points="313,101.7 311.2,100.6 311.7,99.7 312.4,100.2 312.3,100.4 312.6,100.6 313.6,98.9 314.4,99.4 		"/>
		<polygon class="st2" points="315.4,103.1 313.4,101.9 313.7,101.3 314.7,101.9 314.4,100.2 314.7,99.6 316.8,100.8 316.4,101.4 
			315.5,100.9 315.8,102.5 		"/>
		<polygon class="st2" points="310.6,105.5 309.1,104.5 305.1,111.7 304.7,111.4 305.3,110 304.2,109.3 302.7,111.9 305.1,114.5 		
			"/>
		<polygon class="st7" points="311.9,104 317.1,107.2 309.5,117.9 304.4,116.5 		"/>
		<polygon class="st2" points="315,108.1 311.3,105.9 308.3,110.8 309.9,111.7 308.6,113.7 306.9,113.2 305.9,114.9 309.3,115.9 
			312.7,111.2 310.9,110.1 311.9,108.5 313.9,109.6 		"/>
	</g>
	<g>
		<polygon class="st8" points="175.1,99.7 189.4,106.9 180.7,120.8 174.1,119.4 169,114.9 		"/>
		<polygon class="st9" points="181.6,104.6 187.4,107.5 180.1,119.2 174.8,118.1 		"/>
		<polygon class="st2" points="176.2,104 185.1,108.5 184,110.2 177.3,106.8 176.6,108.7 183,111.9 179.8,117.2 175.6,116.3 
			172.5,113.4 173.7,110.6 175.4,111.5 174.9,112.9 176.6,114.5 178.8,114.9 180.1,112.8 174,109.7 		"/>
		<polygon class="st2" points="183.9,99.3 181.4,98 181,98.9 181.7,99.3 180.8,101.1 181.7,101.6 182.7,99.8 183.4,100.2 		"/>
		<polygon class="st2" points="181,97.8 180.1,97.4 179.7,98.3 178.9,97.9 179.3,97 178.4,96.5 177,99.2 177.9,99.7 178.4,98.8 
			179.2,99.2 178.7,100.1 179.6,100.5 		"/>
		<polygon class="st2" points="187.3,101 186.4,100.6 185.4,101.2 185.2,100 184.3,99.5 182.9,102.2 183.8,102.6 184.5,101.3 
			184.6,102.6 185.7,102 185.1,103.3 186,103.7 		"/>
		<polygon class="st2" points="187.8,103.5 188.7,101.7 187.7,101.2 186.4,103.9 188.6,105 189,104.1 		"/>
	</g>
</g>
<g>
	<defs>
		<rect id="SVGID_1_" x="141.7" y="4.2" width="189.4" height="253"/>
	</defs>
	<clipPath id="SVGID_2_">
		<use xlink:href="#SVGID_1_"  style="overflow:visible;"/>
	</clipPath>
	<g style="clip-path:url(#SVGID_2_);">
		
			<image style="overflow:visible;" width="790" height="1055" xlink:href="B9694761.jpg"  transform="matrix(0.2398 0 0 0.2398 141.6631 4.1919)">
		</image>
	</g>
</g>
</svg>
