<svg width="229" height="23" viewBox="0 0 229 23" fill="none" xmlns="http://www.w3.org/2000/svg">
<path d="M7.08 19.24C5.336 19.24 3.888 18.808 2.736 17.944C1.584 17.08 0.976 15.816 0.912 14.152C0.912 14.008 0.96 13.888 1.056 13.792C1.152 13.68 1.28 13.624 1.44 13.624H2.736C3.072 13.624 3.28 13.808 3.36 14.176C3.456 15.2 3.848 15.96 4.536 16.456C5.224 16.952 6.088 17.2 7.128 17.2C8.328 17.2 9.248 16.808 9.888 16.024C10.544 15.224 10.872 14.152 10.872 12.808V4.288H2.352C2.192 4.288 2.056 4.24 1.944 4.144C1.848 4.032 1.8 3.896 1.8 3.736V2.752C1.8 2.592 1.848 2.464 1.944 2.368C2.056 2.256 2.192 2.2 2.352 2.2H12.696C12.872 2.2 13.008 2.256 13.104 2.368C13.216 2.464 13.272 2.6 13.272 2.776V12.856C13.272 14.808 12.72 16.36 11.616 17.512C10.528 18.664 9.016 19.24 7.08 19.24ZM22.0989 19.24C20.3389 19.24 18.9709 18.744 17.9949 17.752C17.0349 16.76 16.5229 15.44 16.4589 13.792L16.4349 12.76L16.4589 11.728C16.5229 10.096 17.0429 8.784 18.0189 7.792C18.9949 6.784 20.3549 6.28 22.0989 6.28C23.8429 6.28 25.2029 6.784 26.1789 7.792C27.1549 8.784 27.6749 10.096 27.7389 11.728C27.7549 11.904 27.7629 12.248 27.7629 12.76C27.7629 13.272 27.7549 13.616 27.7389 13.792C27.6749 15.44 27.1549 16.76 26.1789 17.752C25.2189 18.744 23.8589 19.24 22.0989 19.24ZM22.0989 17.392C23.1069 17.392 23.8989 17.072 24.4749 16.432C25.0669 15.792 25.3869 14.872 25.4349 13.672C25.4509 13.512 25.4589 13.208 25.4589 12.76C25.4589 12.312 25.4509 12.008 25.4349 11.848C25.3869 10.648 25.0669 9.728 24.4749 9.088C23.8989 8.448 23.1069 8.128 22.0989 8.128C21.0909 8.128 20.2909 8.448 19.6989 9.088C19.1069 9.728 18.7949 10.648 18.7629 11.848L18.7389 12.76L18.7629 13.672C18.7949 14.872 19.1069 15.792 19.6989 16.432C20.2909 17.072 21.0909 17.392 22.0989 17.392ZM34.2482 19.24C33.4642 19.24 32.7362 19.08 32.0642 18.76C31.3922 18.44 30.8562 18.008 30.4562 17.464C30.0722 16.904 29.8802 16.288 29.8802 15.616C29.8802 14.56 30.3122 13.696 31.1762 13.024C32.0562 12.336 33.2402 11.888 34.7282 11.68L38.3042 11.176V10.48C38.3042 8.848 37.3682 8.032 35.4962 8.032C34.7922 8.032 34.2162 8.184 33.7682 8.488C33.3202 8.776 32.9842 9.12 32.7602 9.52C32.7122 9.664 32.6482 9.768 32.5682 9.832C32.5042 9.896 32.4082 9.928 32.2802 9.928H31.2482C31.1042 9.928 30.9762 9.88 30.8642 9.784C30.7682 9.672 30.7202 9.544 30.7202 9.4C30.7362 9.016 30.9122 8.584 31.2482 8.104C31.6002 7.608 32.1362 7.184 32.8562 6.832C33.5762 6.464 34.4642 6.28 35.5202 6.28C37.3122 6.28 38.6002 6.704 39.3842 7.552C40.1682 8.384 40.5602 9.424 40.5602 10.672V18.448C40.5602 18.608 40.5042 18.744 40.3922 18.856C40.2962 18.952 40.1682 19 40.0082 19H38.9042C38.7442 19 38.6082 18.952 38.4962 18.856C38.4002 18.744 38.3522 18.608 38.3522 18.448V17.416C38.0002 17.928 37.4882 18.36 36.8162 18.712C36.1442 19.064 35.2882 19.24 34.2482 19.24ZM34.7522 17.44C35.7922 17.44 36.6402 17.104 37.2962 16.432C37.9682 15.744 38.3042 14.76 38.3042 13.48V12.808L35.5202 13.216C34.3842 13.376 33.5282 13.648 32.9522 14.032C32.3762 14.4 32.0882 14.872 32.0882 15.448C32.0882 16.088 32.3522 16.584 32.8802 16.936C33.4082 17.272 34.0322 17.44 34.7522 17.44ZM36.6962 4.84C36.4082 4.84 36.1602 4.8 35.9522 4.72C35.7442 4.64 35.5122 4.52 35.2562 4.36C35.1282 4.28 34.9922 4.208 34.8482 4.144C34.7042 4.064 34.5602 4.024 34.4162 4.024C34.2882 4.024 34.1842 4.048 34.1042 4.096C34.0402 4.144 33.9842 4.2 33.9362 4.264C33.8882 4.328 33.8562 4.368 33.8402 4.384C33.7122 4.608 33.5602 4.72 33.3842 4.72H32.6162C32.5042 4.72 32.4082 4.68 32.3282 4.6C32.2482 4.52 32.2082 4.432 32.2082 4.336C32.2082 3.808 32.3922 3.32 32.7602 2.872C33.1282 2.424 33.6082 2.2 34.2002 2.2C34.4882 2.2 34.7282 2.24 34.9202 2.32C35.1282 2.4 35.3762 2.52 35.6642 2.68C35.6962 2.696 35.8002 2.752 35.9762 2.848C36.1522 2.96 36.3362 3.016 36.5282 3.016C36.6722 3.016 36.7762 2.984 36.8402 2.92C36.9202 2.856 37.0002 2.76 37.0802 2.632C37.1442 2.52 37.2082 2.44 37.2722 2.392C37.3362 2.328 37.4242 2.296 37.5362 2.296H38.3042C38.4322 2.296 38.5282 2.336 38.5922 2.416C38.6722 2.496 38.7122 2.592 38.7122 2.704C38.7122 3.216 38.5202 3.704 38.1362 4.168C37.7682 4.616 37.2882 4.84 36.6962 4.84ZM49.1224 19.24C47.3624 19.24 45.9944 18.744 45.0184 17.752C44.0584 16.76 43.5464 15.44 43.4824 13.792L43.4584 12.76L43.4824 11.728C43.5464 10.096 44.0664 8.784 45.0424 7.792C46.0184 6.784 47.3784 6.28 49.1224 6.28C50.8664 6.28 52.2264 6.784 53.2024 7.792C54.1784 8.784 54.6984 10.096 54.7624 11.728C54.7784 11.904 54.7864 12.248 54.7864 12.76C54.7864 13.272 54.7784 13.616 54.7624 13.792C54.6984 15.44 54.1784 16.76 53.2024 17.752C52.2424 18.744 50.8824 19.24 49.1224 19.24ZM49.1224 17.392C50.1304 17.392 50.9224 17.072 51.4984 16.432C52.0904 15.792 52.4104 14.872 52.4584 13.672C52.4744 13.512 52.4824 13.208 52.4824 12.76C52.4824 12.312 52.4744 12.008 52.4584 11.848C52.4104 10.648 52.0904 9.728 51.4984 9.088C50.9224 8.448 50.1304 8.128 49.1224 8.128C48.1144 8.128 47.3144 8.448 46.7224 9.088C46.1304 9.728 45.8184 10.648 45.7864 11.848L45.7624 12.76L45.7864 13.672C45.8184 14.872 46.1304 15.792 46.7224 16.432C47.3144 17.072 48.1144 17.392 49.1224 17.392ZM69.3864 19.24C68.0584 19.24 66.9064 19.032 65.9304 18.616C64.9704 18.2 64.2344 17.656 63.7224 16.984C63.2104 16.296 62.9384 15.56 62.9064 14.776C62.9064 14.648 62.9544 14.536 63.0504 14.44C63.1624 14.328 63.2904 14.272 63.4344 14.272H64.6584C64.9624 14.272 65.1704 14.432 65.2824 14.752C65.4264 15.424 65.8344 16 66.5064 16.48C67.1944 16.96 68.1544 17.2 69.3864 17.2C70.7144 17.2 71.7144 16.968 72.3864 16.504C73.0584 16.024 73.3944 15.36 73.3944 14.512C73.3944 13.968 73.2264 13.528 72.8904 13.192C72.5704 12.856 72.0904 12.56 71.4504 12.304C70.8104 12.048 69.8504 11.728 68.5704 11.344C67.3224 10.992 66.3304 10.616 65.5944 10.216C64.8584 9.816 64.3064 9.32 63.9384 8.728C63.5704 8.136 63.3864 7.392 63.3864 6.496C63.3864 5.632 63.6184 4.856 64.0824 4.168C64.5624 3.48 65.2424 2.944 66.1224 2.56C67.0024 2.16 68.0504 1.96 69.2664 1.96C70.5144 1.96 71.5864 2.184 72.4824 2.632C73.3784 3.064 74.0584 3.616 74.5224 4.288C74.9864 4.96 75.2344 5.632 75.2664 6.304C75.2664 6.432 75.2184 6.544 75.1224 6.64C75.0424 6.736 74.9224 6.784 74.7624 6.784H73.4904C73.1544 6.784 72.9464 6.632 72.8664 6.328C72.7704 5.656 72.3944 5.104 71.7384 4.672C71.0824 4.224 70.2584 4 69.2664 4C68.1784 4 67.3224 4.208 66.6984 4.624C66.0744 5.04 65.7624 5.656 65.7624 6.472C65.7624 7.016 65.9064 7.464 66.1944 7.816C66.4984 8.168 66.9544 8.48 67.5624 8.752C68.1704 9.008 69.0584 9.304 70.2264 9.64C71.5864 10.008 72.6584 10.392 73.4424 10.792C74.2264 11.176 74.8104 11.664 75.1944 12.256C75.5784 12.832 75.7704 13.568 75.7704 14.464C75.7704 15.952 75.1944 17.12 74.0424 17.968C72.8904 18.816 71.3384 19.24 69.3864 19.24ZM78.9641 4.192C78.8041 4.192 78.6681 4.144 78.5561 4.048C78.4601 3.936 78.4121 3.8 78.4121 3.64V2.344C78.4121 2.184 78.4601 2.048 78.5561 1.936C78.6681 1.824 78.8041 1.768 78.9641 1.768H80.4761C80.6361 1.768 80.7721 1.824 80.8841 1.936C80.9961 2.048 81.0521 2.184 81.0521 2.344V3.64C81.0521 3.8 80.9961 3.936 80.8841 4.048C80.7721 4.144 80.6361 4.192 80.4761 4.192H78.9641ZM79.1561 19C78.9961 19 78.8601 18.952 78.7481 18.856C78.6521 18.744 78.6041 18.608 78.6041 18.448V7.072C78.6041 6.912 78.6521 6.784 78.7481 6.688C78.8601 6.576 78.9961 6.52 79.1561 6.52H80.3081C80.4681 6.52 80.5961 6.576 80.6921 6.688C80.8041 6.784 80.8601 6.912 80.8601 7.072V18.448C80.8601 18.608 80.8041 18.744 80.6921 18.856C80.5961 18.952 80.4681 19 80.3081 19H79.1561ZM84.9926 19C84.8326 19 84.6966 18.952 84.5846 18.856C84.4886 18.744 84.4406 18.608 84.4406 18.448V2.512C84.4406 2.352 84.4886 2.224 84.5846 2.128C84.6966 2.016 84.8326 1.96 84.9926 1.96H86.1206C86.2806 1.96 86.4086 2.016 86.5046 2.128C86.6166 2.224 86.6726 2.352 86.6726 2.512V18.448C86.6726 18.608 86.6166 18.744 86.5046 18.856C86.4086 18.952 86.2806 19 86.1206 19H84.9926ZM94.5966 19C94.1806 19 93.8846 18.8 93.7086 18.4L89.2686 7.264L89.2206 7.024C89.2206 6.88 89.2686 6.76 89.3646 6.664C89.4606 6.568 89.5806 6.52 89.7246 6.52H90.8766C91.1486 6.52 91.3486 6.656 91.4766 6.928L95.1246 16.384L98.7726 6.928C98.9166 6.656 99.1086 6.52 99.3486 6.52H100.525C100.653 6.52 100.765 6.568 100.861 6.664C100.973 6.76 101.029 6.88 101.029 7.024L100.981 7.264L96.5166 18.4C96.3406 18.8 96.0446 19 95.6286 19H94.5966ZM106.553 19.24C105.769 19.24 105.041 19.08 104.369 18.76C103.697 18.44 103.161 18.008 102.761 17.464C102.377 16.904 102.185 16.288 102.185 15.616C102.185 14.56 102.617 13.696 103.481 13.024C104.361 12.336 105.545 11.888 107.033 11.68L110.609 11.176V10.48C110.609 8.848 109.673 8.032 107.801 8.032C107.097 8.032 106.521 8.184 106.073 8.488C105.625 8.776 105.289 9.12 105.065 9.52C105.017 9.664 104.953 9.768 104.873 9.832C104.809 9.896 104.713 9.928 104.585 9.928H103.553C103.409 9.928 103.281 9.88 103.169 9.784C103.073 9.672 103.025 9.544 103.025 9.4C103.041 9.016 103.217 8.584 103.553 8.104C103.905 7.608 104.441 7.184 105.161 6.832C105.881 6.464 106.769 6.28 107.825 6.28C109.617 6.28 110.905 6.704 111.689 7.552C112.473 8.384 112.865 9.424 112.865 10.672V18.448C112.865 18.608 112.809 18.744 112.697 18.856C112.601 18.952 112.473 19 112.313 19H111.209C111.049 19 110.913 18.952 110.801 18.856C110.705 18.744 110.657 18.608 110.657 18.448V17.416C110.305 17.928 109.793 18.36 109.121 18.712C108.449 19.064 107.593 19.24 106.553 19.24ZM107.057 17.44C108.097 17.44 108.945 17.104 109.601 16.432C110.273 15.744 110.609 14.76 110.609 13.48V12.808L107.825 13.216C106.689 13.376 105.833 13.648 105.257 14.032C104.681 14.4 104.393 14.872 104.393 15.448C104.393 16.088 104.657 16.584 105.185 16.936C105.713 17.272 106.337 17.44 107.057 17.44ZM121.523 22.816C120.147 22.816 119.043 22.424 118.211 21.64C117.395 20.856 116.803 19.648 116.435 18.016C116.083 16.384 115.907 14.24 115.907 11.584C115.907 8.928 116.083 6.784 116.435 5.152C116.803 3.52 117.395 2.32 118.211 1.552C119.043 0.767999 120.147 0.375999 121.523 0.375999C121.683 0.375999 121.811 0.431999 121.907 0.543999C122.019 0.639999 122.075 0.768 122.075 0.927999V1.768C122.075 1.912 122.027 2.04 121.931 2.152C121.835 2.264 121.723 2.32 121.595 2.32C120.683 2.336 119.971 2.64 119.459 3.232C118.947 3.824 118.579 4.784 118.355 6.112C118.131 7.44 118.019 9.264 118.019 11.584C118.019 13.904 118.131 15.728 118.355 17.056C118.579 18.384 118.947 19.344 119.459 19.936C119.971 20.544 120.683 20.856 121.595 20.872C121.723 20.872 121.835 20.928 121.931 21.04C122.027 21.152 122.075 21.28 122.075 21.424V22.264C122.075 22.424 122.019 22.552 121.907 22.648C121.811 22.76 121.683 22.816 121.523 22.816ZM145.948 3.6L140.734 19H139.546L134.772 5.184L129.976 19H128.788L123.552 3.6H124.74L129.426 17.46L134.244 3.6H135.322L140.118 17.482L144.848 3.6H145.948ZM157.651 13.522H147.773C147.803 14.4167 148.03 15.216 148.455 15.92C148.881 16.6093 149.453 17.1447 150.171 17.526C150.905 17.9073 151.726 18.098 152.635 18.098C153.383 18.098 154.073 17.966 154.703 17.702C155.349 17.4233 155.884 17.02 156.309 16.492L156.947 17.218C156.449 17.8193 155.818 18.2813 155.055 18.604C154.307 18.9267 153.493 19.088 152.613 19.088C151.469 19.088 150.45 18.8387 149.555 18.34C148.661 17.8413 147.957 17.152 147.443 16.272C146.945 15.392 146.695 14.3873 146.695 13.258C146.695 12.1433 146.93 11.146 147.399 10.266C147.883 9.37133 148.543 8.67467 149.379 8.176C150.215 7.67733 151.154 7.428 152.195 7.428C153.237 7.428 154.168 7.67733 154.989 8.176C155.825 8.66 156.478 9.342 156.947 10.222C157.431 11.102 157.673 12.0993 157.673 13.214L157.651 13.522ZM152.195 8.396C151.389 8.396 150.663 8.57933 150.017 8.946C149.372 9.298 148.851 9.804 148.455 10.464C148.074 11.1093 147.854 11.8427 147.795 12.664H156.595C156.551 11.8427 156.331 11.1093 155.935 10.464C155.539 9.81867 155.019 9.31267 154.373 8.946C153.728 8.57933 153.002 8.396 152.195 8.396ZM166.84 7.428C167.911 7.428 168.879 7.67733 169.744 8.176C170.609 8.66 171.284 9.34933 171.768 10.244C172.267 11.124 172.516 12.1287 172.516 13.258C172.516 14.3873 172.267 15.392 171.768 16.272C171.284 17.152 170.609 17.8413 169.744 18.34C168.879 18.8387 167.911 19.088 166.84 19.088C165.813 19.088 164.882 18.846 164.046 18.362C163.225 17.8633 162.587 17.174 162.132 16.294V19H161.076V2.676H162.176V10.134C162.631 9.28333 163.269 8.62333 164.09 8.154C164.911 7.67 165.828 7.428 166.84 7.428ZM166.774 18.098C167.654 18.098 168.446 17.8927 169.15 17.482C169.854 17.0713 170.404 16.4993 170.8 15.766C171.211 15.0327 171.416 14.1967 171.416 13.258C171.416 12.3193 171.211 11.4833 170.8 10.75C170.404 10.0167 169.854 9.44467 169.15 9.034C168.446 8.62333 167.654 8.418 166.774 8.418C165.894 8.418 165.102 8.62333 164.398 9.034C163.709 9.44467 163.159 10.0167 162.748 10.75C162.352 11.4833 162.154 12.3193 162.154 13.258C162.154 14.1967 162.352 15.0327 162.748 15.766C163.159 16.4993 163.709 17.0713 164.398 17.482C165.102 17.8927 165.894 18.098 166.774 18.098ZM181.924 3.6H188.018C189.617 3.6 191.032 3.93 192.264 4.59C193.511 5.25 194.479 6.16667 195.168 7.34C195.858 8.49867 196.202 9.81867 196.202 11.3C196.202 12.7813 195.858 14.1087 195.168 15.282C194.479 16.4407 193.511 17.35 192.264 18.01C191.032 18.67 189.617 19 188.018 19H181.924V3.6ZM187.93 17.988C189.353 17.988 190.607 17.7093 191.692 17.152C192.778 16.58 193.614 15.788 194.2 14.776C194.787 13.764 195.08 12.6053 195.08 11.3C195.08 9.99467 194.787 8.836 194.2 7.824C193.614 6.812 192.778 6.02733 191.692 5.47C190.607 4.898 189.353 4.612 187.93 4.612H183.046V17.988H187.93ZM209.45 13.522H199.572C199.601 14.4167 199.829 15.216 200.254 15.92C200.679 16.6093 201.251 17.1447 201.97 17.526C202.703 17.9073 203.525 18.098 204.434 18.098C205.182 18.098 205.871 17.966 206.502 17.702C207.147 17.4233 207.683 17.02 208.108 16.492L208.746 17.218C208.247 17.8193 207.617 18.2813 206.854 18.604C206.106 18.9267 205.292 19.088 204.412 19.088C203.268 19.088 202.249 18.8387 201.354 18.34C200.459 17.8413 199.755 17.152 199.242 16.272C198.743 15.392 198.494 14.3873 198.494 13.258C198.494 12.1433 198.729 11.146 199.198 10.266C199.682 9.37133 200.342 8.67467 201.178 8.176C202.014 7.67733 202.953 7.428 203.994 7.428C205.035 7.428 205.967 7.67733 206.788 8.176C207.624 8.66 208.277 9.342 208.746 10.222C209.23 11.102 209.472 12.0993 209.472 13.214L209.45 13.522ZM203.994 8.396C203.187 8.396 202.461 8.57933 201.816 8.946C201.171 9.298 200.65 9.804 200.254 10.464C199.873 11.1093 199.653 11.8427 199.594 12.664H208.394C208.35 11.8427 208.13 11.1093 207.734 10.464C207.338 9.81867 206.817 9.31267 206.172 8.946C205.527 8.57933 204.801 8.396 203.994 8.396ZM221.878 7.516L216.686 19H215.564L210.394 7.516H211.56L216.136 17.79L220.756 7.516H221.878ZM223.079 22.816C222.935 22.816 222.807 22.76 222.695 22.648C222.583 22.552 222.527 22.424 222.527 22.264V21.424C222.527 21.28 222.575 21.152 222.671 21.04C222.783 20.928 222.903 20.872 223.031 20.872C223.927 20.856 224.631 20.544 225.143 19.936C225.671 19.344 226.047 18.384 226.271 17.056C226.495 15.728 226.607 13.904 226.607 11.584C226.607 9.264 226.495 7.44 226.271 6.112C226.047 4.784 225.671 3.824 225.143 3.232C224.631 2.64 223.927 2.336 223.031 2.32C222.903 2.32 222.783 2.264 222.671 2.152C222.575 2.04 222.527 1.912 222.527 1.768V0.927999C222.527 0.768 222.583 0.639999 222.695 0.543999C222.807 0.431999 222.935 0.375999 223.079 0.375999C224.471 0.375999 225.575 0.767999 226.391 1.552C227.207 2.32 227.791 3.52 228.143 5.152C228.511 6.768 228.695 8.912 228.695 11.584C228.695 14.256 228.511 16.408 228.143 18.04C227.791 19.656 227.207 20.856 226.391 21.64C225.575 22.424 224.471 22.816 223.079 22.816Z" fill="black"/>
</svg>
