<?xml version="1.0" encoding="UTF-8"?>
<!DOCTYPE svg PUBLIC "-//W3C//DTD SVG 1.1//EN" "http://www.w3.org/Graphics/SVG/1.1/DTD/svg11.dtd">
<!-- Creator: CorelDRAW 2020 (64 Bit) -->
<svg xmlns="http://www.w3.org/2000/svg" xml:space="preserve" width="94px" height="80px" version="1.1" style="shape-rendering:geometricPrecision; text-rendering:geometricPrecision; image-rendering:optimizeQuality; fill-rule:evenodd; clip-rule:evenodd"
viewBox="0 0 94 79.9"
 xmlns:xlink="http://www.w3.org/1999/xlink"
 xmlns:xodm="http://www.corel.com/coreldraw/odm/2003"
 data-name="Layer 1">
 <defs>
  <style type="text/css">
   <![CDATA[
    .str1 {stroke:#352D2C;stroke-width:0.08;stroke-miterlimit:22.9256}
    .str0 {stroke:#FFB9B9;stroke-width:0.08;stroke-miterlimit:22.9256}
    .str2 {stroke:#24232C;stroke-width:0.9;stroke-miterlimit:22.9256}
    .fil5 {fill:none}
    .fil2 {fill:#D3CDCC}
    .fil6 {fill:#24232C}
    .fil8 {fill:#24232C;fill-rule:nonzero}
    .fil7 {fill:#24232C;fill-rule:nonzero}
    .fil0 {fill:#5C164E;fill-rule:nonzero}
    .fil3 {fill:#5D224F;fill-rule:nonzero}
    .fil4 {fill:#E0A5A5;fill-rule:nonzero}
    .fil1 {fill:#FFB9B9;fill-rule:nonzero}
    .fil9 {fill:black;fill-rule:nonzero;fill-opacity:0.200000}
   ]]>
  </style>
      <clipPath id="id0">
       <path d="M48.54 19.29c2.98,2.3 6.99,3.33 10.31,0.97l-0.04 0.61c-3.27,1.89 -7.17,1.37 -10.19,-0.7l-0.08 -0.88z"/>
      </clipPath>
 </defs>
 <g id="Camada_x0020_1">
  <metadata id="CorelCorpID_0Corel-Layer"/>
  <g id="_2187376262416">
   <g id="_2046332651984">
    <path id="braço_x0020_esquerdo" class="fil0" d="M81.45 59.02c-0.8,0.88 -2.79,2.19 -5.21,3.61 -0.89,0.53 -1.85,1.07 -2.83,1.61 -2.32,1.29 -4.76,2.57 -6.77,3.6 -2.62,1.35 -4.51,2.28 -4.51,2.28 0,0 -0.16,-0.82 -0.43,-1.87 -0.35,-1.4 -0.88,-3.21 -1.43,-4.01 -0.02,-0.03 -0.04,-0.05 -0.06,-0.08 -0.16,-0.21 -0.32,-0.33 -0.48,-0.33l7.98 -4.95 3.45 -2.14 -2.48 -5.94 -3.12 -7.44 1.88 -5.99c-2.86,-5.74 1.2,-5.78 5.34,-5.78 0,0 1.27,2.33 2.77,5.9 0.23,0.53 0.46,1.09 0.69,1.67 3.09,7.51 6.94,17.99 5.21,19.87l0 -0.01z"/>
    <path id="braço_x0020_direito" class="fil0" d="M45.6 64.26c-0.01,0 -0.01,0 -0.02,0 -0.28,0 -0.57,0.02 -0.85,0.07 -2.46,0.42 -3.19,2.65 -3.4,4.15 -0.05,0.36 -0.08,0.74 -0.08,1.11 0,0.09 0,0.18 0.01,0.27l-2.18 -1.68 -0.8 -0.61c-1.91,-0.66 -3.61,-1.85 -5.09,-3.24 -1.27,-1.23 -2.43,-2.6 -3.43,-4.07 -0.98,-1.44 -1.88,-2.97 -2.65,-4.55 -0.22,-0.46 -0.34,-0.96 -0.34,-1.47 0,-0.47 0.1,-0.94 0.3,-1.37l2.7 -6.01 3.94 -8.79c0.03,-0.21 0.06,-0.41 0.09,-0.61 0.78,-4.49 2.88,-6.48 2.88,-6.48 6,-1.9 7.95,1.49 2.67,6.48l1.33 8.04 -0.93 3.04 -2.15 7.03 2.06 2.23 5.94 6.45 0 0.01z"/>
    <g id="pescoço">
     <path class="fil1" d="M48.36 17.71c0,0 1.49,11.2 -0.8,12.46 -2.29,1.26 13.61,1.37 13.61,1.37 0,0 -3.55,-9.72 -1.95,-12.69l-10.86 -1.14z"/>
     <g style="clip-path:url(#id0)">
      <polygon class="fil2" points="-249.91,-279.16 357.3,-279.16 357.3,320.49 -249.91,320.49 "/>
      <g id="Camada_x0020_1_0">
       <metadata id="CorelCorpID_1Corel-Layer"/>
       <g>
        <g id="_2046332651984_1">
         <path id="braço_x0020_esquerdo_2" class="fil3" d="M81.45 59.02c-0.8,0.88 -2.79,2.19 -5.21,3.61 -0.89,0.53 -1.85,1.07 -2.83,1.61 -2.32,1.29 -4.76,2.57 -6.77,3.6 -2.62,1.35 -4.51,2.28 -4.51,2.28 0,0 -0.16,-0.82 -0.43,-1.87 -0.35,-1.4 -0.88,-3.21 -1.43,-4.01 -0.02,-0.03 -0.04,-0.05 -0.06,-0.08 -0.16,-0.21 -0.32,-0.33 -0.48,-0.33l7.98 -4.95 3.45 -2.14 -2.48 -5.94 -3.12 -7.44 1.88 -5.99c-2.86,-5.74 1.2,-5.78 5.34,-5.78 0,0 1.27,2.33 2.77,5.9 0.23,0.53 0.46,1.09 0.69,1.67 3.09,7.51 6.94,17.99 5.21,19.87l0 -0.01z"/>
         <path id="braço_x0020_direito_3" class="fil3" d="M45.6 64.26c-0.01,0 -0.01,0 -0.02,0 -0.28,0 -0.57,0.02 -0.85,0.07 -2.46,0.42 -3.19,2.65 -3.4,4.15 -0.05,0.36 -0.08,0.74 -0.08,1.11 0,0.09 0,0.18 0.01,0.27l-2.18 -1.68 -0.8 -0.61c-1.91,-0.66 -3.61,-1.85 -5.09,-3.24 -1.27,-1.23 -2.43,-2.6 -3.43,-4.07 -0.98,-1.44 -1.88,-2.97 -2.65,-4.55 -0.22,-0.46 -0.34,-0.96 -0.34,-1.47 0,-0.47 0.1,-0.94 0.3,-1.37l2.7 -6.01 3.94 -8.79c0.03,-0.21 0.06,-0.41 0.09,-0.61 0.78,-4.49 2.88,-6.48 2.88,-6.48 6,-1.9 7.95,1.49 2.67,6.48l1.33 8.04 -0.93 3.04 -2.15 7.03 2.06 2.23 5.94 6.45 0 0.01z"/>
         <g id="pescoço_4">
          <path class="fil4" d="M48.36 17.71c0,0 1.49,11.2 -0.8,12.46 -2.29,1.26 13.61,1.37 13.61,1.37 0,0 -3.55,-9.72 -1.95,-12.69l-10.86 -1.14z"/>
         </g>
        </g>
       </g>
      </g>
     </g>
     <path class="fil5" d="M48.54 19.29c2.98,2.3 6.99,3.33 10.31,0.97l-0.04 0.61c-3.27,1.89 -7.17,1.37 -10.19,-0.7l-0.08 -0.88z"/>
    </g>
    <path class="fil0" d="M72.77 31.6l-1.32 6.02 -2.79 12.73 -0.09 0.7 -0.96 8.07 -0.64 5.37 -0.43 3.6c-2.62,1.34 -4.52,2.27 -4.52,2.27 0,0 -0.16,-0.82 -0.42,-1.86 -1.84,0.55 -5.24,1.46 -8.11,1.65 1.04,1.16 1.53,2.26 0.87,3.07 -1.97,2.44 -10.11,-2.67 -12.96,-4.58 -0.05,0.36 -0.08,0.74 -0.08,1.11 0,0.09 0,0.18 0.01,0.27l-2.18 -1.68 0.21 -3.85 0.37 -6.53 0.45 -8.18c-0.14,-0.35 -0.26,-0.71 -0.36,-1.08 -0.67,-2.37 -1.48,-7.11 -2.1,-11.08 -0.5,-3.2 -0.87,-5.9 -0.95,-6.48 -0.01,-0.07 -0.02,-0.11 -0.02,-0.11l12.06 -5.33c0.86,1.99 4.86,2.58 4.86,2.58 3.32,-0.22 5.92,-1.97 5.92,-1.97l13.18 5.29 0 0z"/>
    <path class="fil1" d="M62.94 68.07c0,0 -0.51,0.18 -1.34,0.43 -1.84,0.55 -5.23,1.46 -8.11,1.64 -2.48,0.16 -4.57,-0.22 -4.96,-1.84 -0.16,-0.69 0.07,-1.26 0.58,-1.73 1.51,-1.41 5.47,-1.91 8.61,-2.08 0.89,-0.05 1.71,-0.07 2.39,-0.08 1.16,-0.02 1.92,0.01 1.92,0.01l0.01 0.07 0.9 3.58z"/>
    <g id="cabeça">
     <circle class="fil1 str0" cx="54.25" cy="13.76" r="7.89"/>
     <path id="sombrancelha" class="fil6 str1" d="M57.43 12.59c1.09,0 1.94,0.46 1.94,0.15 0,-0.3 -0.86,-0.73 -1.95,-0.73 -1.1,0 -2.01,0.43 -2.01,0.73 0,0.31 0.92,-0.15 2.02,-0.15z"/>
     <path id="sombrancelha_0" class="fil6 str1" d="M51.01 12.67c1.09,0 1.94,0.45 1.94,0.15 0,-0.31 -0.86,-0.73 -1.95,-0.73 -1.09,0 -2.01,0.42 -2.01,0.73 0,0.3 0.93,-0.15 2.02,-0.15z"/>
     <path id="cabelo" class="fil7 str1" d="M47.69 6.3l-1.47 -0.59c0,0 3.08,-3.4 7.37,-3.1l-1.2 -1.33c0,0 2.95,-1.18 5.63,1.92 1.41,1.63 3.04,3.54 4.06,5.7l1.58 0 -0.66 1.45 2.3 1.46 -2.36 -0.27c0.08,0.47 0.12,0.95 0.12,1.42 0,0.33 -0.02,0.67 -0.06,0.99 -0.1,0.8 -0.51,1.54 -1.14,2.04l0 0c0,0 -1.83,-3.79 -1.83,-4.38l0 1.48c0,0 -1.48,-1.33 -1.48,-2.21l-0.8 1.03 -0.4 -1.62 -4.96 1.62 0.8 -1.33 -3.08 0.44 1.2 -1.62c0,0 -3.48,1.92 -3.62,3.54 -0.13,1.63 -1.15,3.17 -1.15,3.17 0,0 -2.74,-7.6 1.15,-9.81l0 0z"/>
     <g id="oculos">
      <ellipse class="fil5 str2" cx="50.73" cy="15.24" rx="1.94" ry="1.89"/>
      <line class="fil5 str2" x1="48.79" y1="15.24" x2="45.73" y2= "12.65" />
      <ellipse class="fil5 str2" cx="57.72" cy="15.24" rx="1.94" ry="1.89"/>
      <line class="fil5 str2" x1="59.66" y1="15.24" x2="62.73" y2= "12.65" />
      <path class="fil5 str2" d="M52.67 15.24c1,-0.25 2.03,-0.28 3.11,0"/>
     </g>
    </g>
    <path class="fil1" d="M54.36 73.22c-1.97,2.44 -10.11,-2.67 -12.96,-4.58 -0.62,-0.42 -0.99,-0.68 -0.99,-0.68l2.61 -3.47 0.82 -1.1c0,0 0.74,0.39 1.83,1.03 0.04,0.02 0.08,0.04 0.12,0.07 0.94,0.55 2.13,1.27 3.32,2.08 1.64,1.11 3.3,2.38 4.38,3.57 1.04,1.17 1.53,2.27 0.87,3.08l0 0z"/>
    <path class="fil8" d="M78.68 71.91l0 0.65c0,0 0,0 0,0 0,0.18 -0.03,0.36 -0.09,0.52 -0.03,0.08 -0.07,0.15 -0.11,0.22 -0.26,0.43 -0.73,0.7 -1.24,0.7 0,0 0,0 0,0l-47.91 0c0,0 0,0 0,0 -0.51,0 -0.98,-0.27 -1.24,-0.7 -0.04,-0.07 -0.07,-0.14 -0.1,-0.22 -0.07,-0.16 -0.1,-0.34 -0.1,-0.52 0,0 0,0 0,0l0 -0.65c0,0 0,0 0,0 0,-0.79 0.64,-1.44 1.44,-1.44 0,0 0,0 0,0l2.76 0 0 -0.3c0,0 0,0 0,0 0,-0.04 0.03,-0.06 0.06,-0.06 0,0 0,0 0,0l1.44 0c0,0 0,0 0,0 0.03,0 0.06,0.02 0.06,0.06 0,0 0,0 0,0l0 0.3 0.9 0 0 -0.3c0,0 0,0 0,0 0,-0.04 0.03,-0.06 0.06,-0.06 0,0 0,0 0,0l1.44 0c0,0 0,0 0,0 0.04,0 0.06,0.02 0.06,0.06 0,0 0,0 0,0l0 0.3 0.9 0 0 -0.3c0,0 0,0 0,0 0,-0.04 0.03,-0.06 0.06,-0.06 0,0 0,0 0,0l1.44 0c0,0 0,0 0,0 0.04,0 0.06,0.02 0.06,0.06 0,0 0,0 0,0l0 0.3 0.9 0 0 -0.3c0,0 0,0 0,0 0,-0.04 0.03,-0.06 0.06,-0.06 0,0 0,0 0,0l1.44 0c0,0 0,0 0,0 0.04,0 0.06,0.02 0.06,0.06 0,0 0,0 0,0l0 0.3 0.9 0 0 -0.3c0,0 0,0 0,0 0,-0.04 0.03,-0.06 0.06,-0.06 0,0 0,0 0,0l1.45 0c0,0 0,0 0,0 0.03,0 0.05,0.02 0.05,0.06 0,0 0,0 0,0l0 0.3 0.91 0 0 -0.3c0,0 0,0 0,0 0,-0.04 0.02,-0.06 0.06,-0.06 0,0 0,0 0,0l1.44 0c0,0 0,0 0,0 0.03,0 0.06,0.02 0.06,0.06 0,0 0,0 0,0l0 0.3 0.9 0 0 -0.3c0,0 0,0 0,0 0,-0.04 0.02,-0.06 0.06,-0.06 0,0 0,0 0,0l11.28 0c0,0 0,0 0,0 0.04,0 0.06,0.02 0.06,0.06 0,0 0,0 0,0l0 0.3 0.9 0 0 -0.3c0,0 0,0 0,0 0,-0.04 0.03,-0.06 0.06,-0.06 0,0 0,0 0,0l1.45 0c0.03,0 0.06,0.02 0.06,0.06l0 0.3 0.9 0 0 -0.3c0,0 0,0 0,0 0,-0.04 0.02,-0.06 0.06,-0.06 0,0 0,0 0,0l1.44 0c0,0 0,0 0,0 0.03,0 0.06,0.02 0.06,0.06 0,0 0,0 0,0l0 0.3 0.9 0 0 -0.3c0,0 0,0 0,0 0,-0.04 0.02,-0.06 0.06,-0.06 0,0 0,0 0,0l1.44 0c0,0 0,0 0,0 0.03,0 0.06,0.02 0.06,0.06 0,0 0,0 0,0l0 0.3 0.9 0 0 -0.3c0,0 0,0 0,0 0,-0.04 0.02,-0.06 0.06,-0.06 0,0 0,0 0,0l1.44 0c0.03,0 0.06,0.02 0.06,0.06 0,0 0,0 0,0l0 0.3 0.9 0 0 -0.3c0,0 0,0 0,0 0,-0.04 0.02,-0.06 0.06,-0.06 0,0 0,0 0,0l1.44 0c0,0 0,0 0,0 0.03,0 0.06,0.02 0.06,0.06 0,0 0,0 0,0l0 0.3 0.9 0 0 -0.3c0,0 0,0 0,0 0,-0.04 0.03,-0.06 0.06,-0.06 0,0 0,0 0,0l1.44 0c0,0 0,0 0,0 0.03,0 0.06,0.02 0.06,0.06 0,0 0,0 0,0l0 0.3 4.2 0c0,0 0,0 0,0 0.8,0 1.44,0.65 1.44,1.44 0,0 0,0 0,0l0 0 0.01 0z"/>
    <rect class="fil8" x="2.09" y="73.08" width="90.53" height="0.22"/>
    <path class="fil8" d="M74.83 44.48l-17.86 0 0 -0.36 -8.1 0 0 0.36 -17.93 0c-0.67,0 -1.21,0.54 -1.21,1.21l0 24.45c0,0 0,0 0,0 0,0.67 0.54,1.21 1.21,1.21l43.89 0c0.66,0 1.2,-0.54 1.2,-1.21 0,0 0,0 0,0l0 -24.45c0,0 0,0 0,0 0,-0.67 -0.54,-1.21 -1.2,-1.21 0,0 0,0 0,0z"/>
   </g>
   <g id="_2046332647856">
    <g id="corpo_x0020_do_x0020_gato">
     <path class="fil0" d="M19.19 66.88l0 6.18 -18.9 0c0,-3.41 2.77,-6.18 6.19,-6.18 1.77,-0.56 3.82,-0.73 6.04,-0.68 2.1,0.06 4.35,0.32 6.67,0.68l0 0z"/>
     <path class="fil8" d="M16.49 71.71l8.89 0c0.31,0 0.56,0.26 0.56,0.57l0 0c0,0.31 -0.25,0.56 -0.56,0.56l-8.89 0 0 -1.13 0 0z"/>
     <path class="fil0" d="M0.29 73.06c0.64,-0.54 1.24,-0.53 1.8,0l0 3.83c0,0.99 -0.81,1.8 -1.8,1.8l0 0 0 -5.63 0 0z"/>
     <path class="fil0" d="M16.15 71.94l8.89 0c0.31,0 0.56,0.25 0.56,0.56l0 0c0,0.31 -0.25,0.56 -0.56,0.56l-8.89 0 0 -1.12 0 0z"/>
     <path class="fil9" d="M19.19 66.88l0 6.15c-0.21,0.02 -0.43,0.03 -0.64,0.03 -3.36,0 -6.08,-2.72 -6.08,-6.07 0,-0.26 0.02,-0.53 0.05,-0.78 2.1,0.05 4.35,0.31 6.67,0.67l0 0z"/>
    </g>
    <g id="cabeça_x0020_do_x0020_gato">
     <circle class="fil0" cx="19.19" cy="66.99" r="6.08"/>
     <ellipse class="fil8" cx="25.04" cy="67.44" rx="0.67" ry="1.57"/>
     <ellipse class="fil8" cx="23.41" cy="65.81" rx="0.17" ry="0.39"/>
     <path class="fil8" d="M18.03 61.58l2.38 -2.89c0.1,-0.22 0.32,-0.35 0.56,-0.35 0.28,0 0.53,0.18 0.61,0.45l0.94 3.32 -4.49 -0.53z"/>
     <path class="fil0" d="M15.14 63.05l0.9 -3.63c0,-0.35 0.28,-0.63 0.62,-0.63 0.18,0 0.35,0.08 0.47,0.21l2.28 2.59 -4.27 1.46 0 0z"/>
     <ellipse class="fil8" cx="24.65" cy="65.02" rx="0.17" ry="0.39"/>
     <g>
      <path class="fil8" d="M18.68 60.84c0,0 -0.34,-0.58 -0.34,-0.94l0.34 0.94zm0 0l0 0 0 0z"/>
     </g>
     <g>
      <path class="fil8" d="M18.83 60.46c0,0 0.18,-0.65 0.44,-0.9l-0.44 0.9zm0 0l0 0 0 0z"/>
     </g>
    </g>
   </g>
  </g>
 </g>
</svg>
