<?xml version="1.0" encoding="UTF-8"?>
<!DOCTYPE svg PUBLIC "-//W3C//DTD SVG 1.1//EN" "http://www.w3.org/Graphics/SVG/1.1/DTD/svg11.dtd">
<!-- Creator: CorelDRAW 2020 (64 Bit) -->
<svg xmlns="http://www.w3.org/2000/svg" xml:space="preserve" width="4488px" height="4488px" version="1.1" style="shape-rendering:geometricPrecision; text-rendering:geometricPrecision; image-rendering:optimizeQuality; fill-rule:evenodd; clip-rule:evenodd"
viewBox="0 0 4488 4488"
 xmlns:xlink="http://www.w3.org/1999/xlink"
 xmlns:xodm="http://www.corel.com/coreldraw/odm/2003"
 data-name="Layer 1">
 <defs>
  <style type="text/css">
   <![CDATA[
    .fil1 {fill:#24232C;fill-rule:nonzero}
    .fil3 {fill:#24232C;fill-rule:nonzero}
    .fil0 {fill:#5C164E;fill-rule:nonzero}
    .fil2 {fill:#FFB8B8;fill-rule:nonzero}
   ]]>
  </style>
 </defs>
 <g id="Camada_x0020_1">
  <metadata id="CorelCorpID_0Corel-Layer"/>
  <g id="_2187392623328">
   <g id="_2305548458032">
    <g id="interrogação">
     <circle id="ponto" class="fil0" cx="3369.47" cy="4077.13" r="381.66"/>
     <path id="corpo" class="fil0" d="M3328.59 94.73c-596.47,4.19 -1084.87,488.93 -1093.34,1085.35 -0.08,5.49 -0.1,44.22 -0.1,94.85 0,154.6 125.35,279.98 279.95,279.98l0 0c154.72,-0.03 280.12,-125.46 280.12,-280.17 0,-0.05 0,-0.16 0,-0.24 -0.03,-34.43 -0.05,-58.27 -0.05,-59.73 0,0 0,-0.13 0,-0.13 0,-293.2 237.8,-530.98 531,-530.98 293.21,0 530.98,237.78 530.98,530.98 0,180.94 -92.25,349.54 -244.57,447.12l0.08 0.11c0,0 -398.49,256.54 -519.96,608.44l0.1 0.02c-21.18,71.84 -32.14,146.67 -32.14,221.61 0,0.11 0,0.37 0,0.48 0,30.9 1.83,301.35 5.33,520.84 2.55,157.55 131.06,283.97 288.59,283.97 0,0 0.08,0 0.08,0l0 0.02c159.38,-0.02 288.66,-129.31 288.66,-288.72 0,-0.55 0,-1.22 0,-1.78 -1.22,-201.03 -1.88,-435.09 -1.88,-452.08 0,-216.09 208.46,-431.4 379.69,-571.81 197.18,-161.66 339.07,-382 396.07,-630.55 12.56,-51.02 19.59,-103.66 20.73,-156.23 0,0 0,0 0,0 0,-608.17 -493.23,-1101.38 -1101.4,-1101.38 -2.55,0 -5.37,0 -7.94,0l0 0.03z"/>
     <path class="fil1" d="M3285.37 4365.69c-139.21,-60.58 -229.23,-198.01 -229.23,-349.86 0,-88.79 30.98,-174.88 87.61,-243.27 -98.36,71.81 -156.6,186.39 -156.6,308.23 0,210.73 170.91,381.63 381.63,381.63 113.72,0 221.64,-50.78 294.08,-138.44 -65.31,47.71 -144.17,73.51 -225.06,73.51 -52.43,0 -104.38,-10.86 -152.43,-31.8l0 0 0 0z"/>
     <path class="fil1" d="M2594.16 1422.5l0 0c-154.61,0 -279.96,-125.41 -279.96,-280.01 0,-50.63 0.03,-89.36 0.11,-94.85 2.28,-173.25 46.11,-344.02 127.37,-497.06 -133.56,182.85 -207.25,403.4 -210.3,629.84 -0.08,5.5 -0.14,44.23 -0.14,94.85 -0.02,154.58 125.33,279.96 279.96,279.96l0 0c125.33,-0.03 235.44,-83.44 269.53,-204.01 -51.13,45.87 -117.5,71.28 -186.23,71.28 -0.1,0 -0.24,0 -0.34,0l0 0z"/>
     <path class="fil1" d="M3347.54 684.67c283.07,13.46 505.71,247.04 505.71,530.42 0,72.68 -14.97,144.76 -43.91,211.42 81.79,-96.02 126.71,-218.08 126.71,-344.23 0,-293.2 -237.78,-530.98 -530.98,-530.98 -211.44,0 -402.82,125.56 -487.02,319.46 100.61,-118.4 248.37,-186.7 403.77,-186.7 8.52,0 17.28,0.24 25.75,0.64l-0.03 -0.03 0 0z"/>
     <path class="fil1" d="M3433.69 3164.81l0 0c0,0 -0.06,0 -0.06,0 -157.55,0 -286.06,-126.44 -288.58,-283.94 -3.51,-219.51 -5.34,-489.94 -5.34,-520.84 0,-0.13 0,-0.42 0,-0.53 0,-74.91 10.97,-149.77 32.18,-221.55l-0.08 -0.03c12.42,-36 27.92,-71.62 45.55,-105.44 -54.37,72.52 -97.95,153.01 -128.59,238.17l0.11 0.03c-21.19,71.81 -32.12,146.64 -32.12,221.58 0,0.11 0,0.37 0,0.48 0,30.9 1.8,301.35 5.33,520.84 2.52,157.55 131.03,283.96 288.56,283.96 0,0 0.08,0 0.08,0l0 0.03c128.27,-0.03 241.17,-84.68 277.14,-207.83 -52.96,48.29 -122.11,75.07 -193.79,75.07 -0.1,0 -0.31,0 -0.39,0l0 0z"/>
    </g>
    <g id="pernas">
     <polygon id="calcanhar" class="fil2" points="840.19,4364.07 941.89,4364.07 990.28,3971.74 840.16,3971.74 "/>
     <path id="pé" class="fil1" d="M1138.07 4458.52l-319.67 0 -0.03 -123.49 196.18 -0.03c68.19,0 123.52,55.32 123.52,123.52l0 0 0 0 0 0z"/>
     <polygon id="calcanhar_0" class="fil2" points="475.13,4364.07 576.82,4364.07 625.22,3971.74 475.1,3971.74 "/>
     <path id="pé_1" class="fil1" d="M773 4458.52l-319.67 0 0 -123.49 196.15 -0.03c68.2,0 123.52,55.32 123.52,123.52l0 0 0 0 0 0z"/>
     <path id="calça" class="fil1" d="M564 4243.41l-99.33 -5.23c-20.6,-1.08 -36.74,-18.1 -36.74,-38.73 0,-0.82 0.02,-1.64 0.08,-2.49l118.74 -1314.73 546.85 147.54 52.7 -14.36 -164.78 1163.92c-2.89,18.03 -17.91,31.64 -36.15,32.71l-107.12 4.99c-0.69,0.05 -1.43,0.08 -2.15,0.08 -21.39,0 -38.75,-17.39 -38.75,-38.79 0,-0.37 0,-0.71 0,-1.06l19.4 -698.57c0,-0.13 0,-0.23 0,-0.37 0,-7.14 -5.78,-12.92 -12.93,-12.92 -6.1,0 -11.41,4.3 -12.63,10.3l-187.18 736.87c-3.61,17.97 -19.43,30.9 -37.78,30.9 -0.02,0 -0.07,0 -0.1,0 -0.72,0 -1.41,0 -2.13,-0.05l0 -0.01z"/>
    </g>
    <g id="braço_x0020_Esquerdo">
     <path class="fil2" d="M1351.68 2989.23c-34.9,-10.85 -58.74,-43.19 -58.74,-79.74 0,-16.59 4.96,-32.84 14.2,-46.59l-178.18 -236.95 153.76 -9.53 145.66 226.49c20.52,15.88 32.57,40.4 32.57,66.37 0,46.32 -37.56,83.88 -83.89,83.88 -8.6,0 -17.17,-1.32 -25.37,-3.93l0 0 -0.01 0z"/>
     <path class="fil0" d="M1226.39 2820.03c-9.51,-3.88 -17.13,-11.42 -21.08,-20.92l-268.46 -639.61c-5.31,-12.69 -8.1,-26.36 -8.1,-40.11 0,-57.1 46.32,-103.4 103.42,-103.4 41.65,0 79.27,25.04 95.38,63.45l268.47 639.66c1.96,4.72 3,9.82 3,14.97 0,15.61 -9.37,29.73 -23.76,35.79l-119.17 50.01c-4.75,2.02 -9.87,3.05 -15.02,3.05 -5.02,0 -10.01,-0.98 -14.66,-2.92l-0.02 0.03 0 0z"/>
    </g>
    <path id="torax" class="fil0" d="M519.17 2201.39l22.4 483.44 8.1 175.87c0.66,15.66 10.75,29.36 25.51,34.64l525.48 190.34c4.15,1.54 8.52,2.33 12.96,2.33 0.1,0 0.21,0 0.32,0 0.05,0 0.13,0 0.18,0 21.27,0 38.52,-17.25 38.52,-38.52 0,-0.39 0,-0.79 0,-1.19l-21.55 -869.23c-2.9,-147.07 -110.04,-271.41 -255.06,-296.02 -5.07,-0.77 -10.25,-1.57 -15.42,-2.26 -12.27,-1.49 -24.69,-2.25 -37.06,-2.25 -76.06,0 -149.3,28.82 -204.91,80.62 -63.61,58.45 -99.82,140.96 -99.82,227.37 0,4.93 0.11,9.95 0.35,14.86l0 0 0 0z"/>
    <g id="braço_x0020_Direito">
     <path class="fil1" d="M792.94 2797.46l257.84 -493.73c6.98,-13.35 20.81,-21.72 35.87,-21.72 6.5,0 12.92,1.6 18.69,4.6l374.27 195.46c13.36,6.98 21.72,20.81 21.72,35.86 0,6.5 -1.6,12.93 -4.6,18.69l-257.84 493.73c-6.98,13.33 -20.81,21.69 -35.86,21.69 -6.51,0 -12.93,-1.56 -18.69,-4.56l-374.31 -195.46c-13.32,-7.01 -21.68,-20.82 -21.68,-35.87 0,-6.5 1.59,-12.93 4.59,-18.71l0 0.02 0 0z"/>
     <path class="fil2" d="M965.86 2571.87c-12.24,-32.52 -43.38,-54.07 -78.15,-54.07 -18.27,0 -36.05,6 -50.6,17.07l-247.07 -163.9 -0.42 154.07 234.7 132.02c15.92,18.26 38.99,28.75 63.2,28.75 46.33,0 83.92,-37.57 83.92,-83.89 0,-10.27 -1.92,-20.46 -5.58,-30.05l0 0 0 0z"/>
     <path class="fil0" d="M653.49 2606.54l-201.94 -159.97c-57.95,-19.45 -97.05,-73.79 -97.05,-134.98 0,-32.87 11.36,-64.7 32.17,-90.13l183.33 -240.27c15.9,-19.43 39.72,-30.71 64.83,-30.71 46.24,0 83.75,37.51 83.75,83.75 0,11.07 -2.2,22.06 -6.48,32.28l-145.04 237.27 213.16 101.12c13.54,6.42 22.17,20.07 22.17,35.04 0,7.33 -2.07,14.52 -6,20.73l-86.04 136.18c-5.89,9.27 -15.45,15.67 -26.28,17.5 -0.21,0.05 -0.42,0.08 -0.64,0.1 -1.91,0.3 -3.87,0.45 -5.81,0.45 -8.76,0 -17.25,-2.94 -24.13,-8.36l0 0 0 0z"/>
    </g>
    <g id="cabeça">
     <circle class="fil2" cx="858.43" cy="1602.69" r="203.77"/>
     <path class="fil3" d="M704.46 1739.14c-0.61,-1.83 -0.96,-3.77 -0.96,-5.71 0,-9.26 7.14,-16.96 16.36,-17.68 11.15,0.62 21.58,5.76 28.85,14.23 7.38,8.5 15.98,15.91 25.49,21.88 9.84,4.99 23.22,4.27 28.85,-5.2 5.26,-8.9 1.65,-20.82 -1.54,-31.14 -8.1,-26.29 -12.71,-53.57 -13.51,-81.05 -0.93,-30.69 3.4,-62.73 20.39,-86.67 21.95,-30.9 61.16,-42.64 98.27,-41.79 37.14,0.85 73.64,12.29 110.41,19.54 12.71,2.5 27.63,3.77 36.1,-6.05 9.03,-10.46 5.71,-27.4 1.89,-41.52 -9.96,-36.66 -20.55,-74.54 -43.7,-104.14 -25.01,-30.74 -60.79,-50.92 -100.05,-56.36 -9.77,-1.19 -19.67,-1.81 -29.52,-1.81 -28.03,0 -55.88,4.92 -82.19,14.5 -58.11,18.32 -109.37,53.99 -146.72,102.2 -31.51,42 -48.58,93.13 -48.58,145.66 0,11.21 0.8,22.49 2.34,33.56 8.62,55.24 37.96,105.31 82,139.82l15.82 -12.27 0 0z"/>
    </g>
   </g>
  </g>
 </g>
</svg>
