<?xml version="1.0" encoding="UTF-8"?>
<!DOCTYPE svg PUBLIC "-//W3C//DTD SVG 1.1//EN" "http://www.w3.org/Graphics/SVG/1.1/DTD/svg11.dtd">
<!-- Creator: CorelDRAW 2020 (64 Bit) -->
<svg xmlns="http://www.w3.org/2000/svg" xml:space="preserve" width="2835px" height="1772px" version="1.1" style="shape-rendering:geometricPrecision; text-rendering:geometricPrecision; image-rendering:optimizeQuality; fill-rule:evenodd; clip-rule:evenodd"
viewBox="0 0 2835 1771.88"
 xmlns:xlink="http://www.w3.org/1999/xlink"
 xmlns:xodm="http://www.corel.com/coreldraw/odm/2003"
 data-name="Layer 1">
 <defs>
  <style type="text/css">
   <![CDATA[
    .str0 {stroke:#24232C;stroke-width:2.36;stroke-miterlimit:22.9256}
    .fil1 {fill:#24232C;fill-rule:nonzero}
    .fil3 {fill:#352D2C;fill-rule:nonzero}
    .fil0 {fill:#5C164E;fill-rule:nonzero}
    .fil2 {fill:#FFB8B8;fill-rule:nonzero}
   ]]>
  </style>
 </defs>
 <g id="Camada_x0020_1">
  <metadata id="CorelCorpID_0Corel-Layer"/>
  <g id="_2305548458032">
   <g id="interrogação">
    <circle class="fil0" cx="1445.89" cy="1585.56" r="143.77"/>
    <path class="fil0" d="M1430.49 85.39c-224.69,1.58 -408.67,184.18 -411.86,408.85 -0.03,2.07 -0.04,16.66 -0.04,35.73 0,58.24 47.22,105.47 105.46,105.47l0 0c58.28,-0.01 105.52,-47.26 105.52,-105.54 0,-0.02 0,-0.06 0,-0.09 -0.01,-12.97 -0.02,-21.95 -0.02,-22.5 0,0 0,-0.05 0,-0.05 0,-110.45 89.58,-200.02 200.03,-200.02 110.45,0 200.02,89.57 200.02,200.02 0,68.16 -34.75,131.67 -92.13,168.43l0.03 0.04c0,0 -150.11,96.64 -195.87,229.2l0.04 0.01c-7.98,27.06 -12.11,55.25 -12.11,83.48 0,0.04 0,0.14 0,0.18 0,11.64 0.69,113.52 2.01,196.2 0.96,59.35 49.37,106.97 108.71,106.97 0,0 0.03,0 0.03,0l0 0.01c60.04,-0.01 108.74,-48.71 108.74,-108.76 0,-0.21 0,-0.46 0,-0.67 -0.46,-75.73 -0.71,-163.9 -0.71,-170.3 0,-81.4 78.53,-162.51 143.03,-215.4 74.28,-60.9 127.73,-143.9 149.2,-237.53 4.73,-19.22 7.38,-39.05 7.81,-58.85 0,0 0,0 0,0 0,-229.1 -185.8,-414.89 -414.9,-414.89 -0.96,0 -2.02,0 -2.99,0l0 0.01z"/>
    <path class="fil1" d="M1414.21 1694.26c-52.44,-22.82 -86.35,-74.59 -86.35,-131.79 0,-33.45 11.67,-65.88 33,-91.64 -37.05,27.05 -58.99,70.21 -58.99,116.11 0,79.38 64.38,143.76 143.76,143.76 42.84,0 83.49,-19.13 110.78,-52.15 -24.6,17.97 -54.31,27.69 -84.78,27.69 -19.75,0 -39.32,-4.09 -57.42,-11.98l0 0z"/>
    <path class="fil1" d="M1153.83 585.56l0 0c-58.24,0 -105.46,-47.24 -105.46,-105.48 0,-19.07 0.01,-33.66 0.04,-35.73 0.86,-65.26 17.37,-129.59 47.98,-187.24 -50.31,68.88 -78.07,151.96 -79.22,237.26 -0.03,2.07 -0.05,16.66 -0.05,35.73 -0.01,58.23 47.21,105.46 105.46,105.46l0 0c47.21,-0.01 88.69,-31.43 101.53,-76.85 -19.26,17.28 -44.26,26.85 -70.15,26.85 -0.04,0 -0.09,0 -0.13,0l0 0z"/>
    <path class="fil1" d="M1437.63 307.62c106.63,5.07 190.5,93.06 190.5,199.81 0,27.38 -5.64,54.53 -16.54,79.64 30.81,-36.17 47.73,-82.15 47.73,-129.67 0,-110.45 -89.57,-200.02 -200.02,-200.02 -79.65,0 -151.74,47.3 -183.46,120.34 37.9,-44.6 93.56,-70.33 152.1,-70.33 3.21,0 6.51,0.09 9.7,0.24l-0.01 -0.01z"/>
    <path class="fil1" d="M1470.08 1241.89l0 0c0,0 -0.02,0 -0.02,0 -59.35,0 -107.76,-47.63 -108.71,-106.96 -1.32,-82.69 -2.01,-184.56 -2.01,-196.2 0,-0.05 0,-0.16 0,-0.2 0,-28.22 4.13,-56.42 12.12,-83.46l-0.03 -0.01c4.68,-13.56 10.52,-26.98 17.16,-39.72 -20.48,27.32 -36.9,57.64 -48.44,89.72l0.04 0.01c-7.98,27.05 -12.1,55.24 -12.1,83.47 0,0.04 0,0.14 0,0.18 0,11.64 0.68,113.52 2.01,196.2 0.95,59.35 49.36,106.97 108.7,106.97 0,0 0.03,0 0.03,0l0 0.01c48.32,-0.01 90.85,-31.9 104.4,-78.29 -19.95,18.19 -46,28.28 -73,28.28 -0.04,0 -0.12,0 -0.15,0l0 0z"/>
   </g>
   <path class="fil1 str0" d="M2733.83 1733.27l-2632.49 0c-2.05,0 -3.71,-1.67 -3.71,-3.72 0,-2.05 1.66,-3.71 3.71,-3.72l2632.49 0c2.06,0 3.73,1.67 3.73,3.72 0,2.06 -1.67,3.72 -3.73,3.72l0 0z"/>
   <g id="pernas">
    <polygon class="fil2" points="493.11,1693.65 531.42,1693.65 549.65,1545.86 493.1,1545.86 "/>
    <path class="fil1" d="M605.32 1729.23l-120.42 0 -0.01 -46.52 73.9 -0.01c25.69,0 46.53,20.84 46.53,46.53l0 0 0 0z"/>
    <polygon class="fil2" points="355.59,1693.65 393.9,1693.65 412.13,1545.86 355.58,1545.86 "/>
    <path class="fil1" d="M467.8 1729.23l-120.42 0 0 -46.52 73.89 -0.01c25.69,0 46.53,20.84 46.53,46.53l0 0 0 0z"/>
    <path class="fil1" d="M389.07 1648.2l-37.42 -1.97c-7.76,-0.41 -13.84,-6.82 -13.84,-14.59 0,-0.31 0.01,-0.62 0.03,-0.94l44.73 -495.26 206 55.58 19.85 -5.41 -62.07 438.45c-1.09,6.79 -6.75,11.92 -13.62,12.32l-40.35 1.88c-0.26,0.02 -0.54,0.03 -0.81,0.03 -8.06,0 -14.6,-6.55 -14.6,-14.61 0,-0.14 0,-0.27 0,-0.4l7.31 -263.15c0,-0.05 0,-0.09 0,-0.14 0,-2.69 -2.18,-4.87 -4.87,-4.87 -2.3,0 -4.3,1.62 -4.76,3.88l-70.51 277.58c-1.36,6.77 -7.32,11.64 -14.23,11.64 -0.01,0 -0.03,0 -0.04,0 -0.27,0 -0.53,0 -0.8,-0.02z"/>
   </g>
   <g id="braço_x0020_Esquerdo">
    <path class="fil2" d="M685.79 1175.75c-13.15,-4.09 -22.13,-16.27 -22.13,-30.04 0,-6.25 1.87,-12.37 5.35,-17.55l-67.12 -89.26 57.92 -3.59 54.87 85.32c7.73,5.98 12.27,15.22 12.27,25 0,17.45 -14.15,31.6 -31.6,31.6 -3.24,0 -6.47,-0.5 -9.56,-1.48l0 0z"/>
    <path class="fil0" d="M638.59 1112.01c-3.58,-1.46 -6.45,-4.3 -7.94,-7.88l-101.13 -240.94c-2,-4.78 -3.05,-9.93 -3.05,-15.11 0,-21.51 17.45,-38.95 38.96,-38.95 15.69,0 29.86,9.43 35.93,23.9l101.13 240.96c0.74,1.78 1.13,3.7 1.13,5.64 0,5.88 -3.53,11.2 -8.95,13.48l-44.89 18.84c-1.79,0.76 -3.72,1.15 -5.66,1.15 -1.89,0 -3.77,-0.37 -5.52,-1.1l-0.01 0.01z"/>
   </g>
   <path id="torax" class="fil0" d="M372.18 878.97l8.44 182.11 3.05 66.25c0.25,5.9 4.05,11.06 9.61,13.05l197.95 71.7c1.56,0.58 3.21,0.88 4.88,0.88 0.04,0 0.08,0 0.12,0 0.02,0 0.05,0 0.07,0 8.01,0 14.51,-6.5 14.51,-14.51 0,-0.15 0,-0.3 0,-0.45l-8.12 -327.44c-1.09,-55.4 -41.45,-102.24 -96.08,-111.51 -1.91,-0.29 -3.86,-0.59 -5.81,-0.85 -4.62,-0.56 -9.3,-0.85 -13.96,-0.85 -28.65,0 -56.24,10.86 -77.19,30.37 -23.96,22.02 -37.6,53.1 -37.6,85.65 0,1.86 0.04,3.75 0.13,5.6l0 0z"/>
   <g id="braço_x0020_Direito">
    <path class="fil1" d="M475.31 1103.51l97.13 -185.99c2.63,-5.03 7.84,-8.18 13.51,-8.18 2.45,0 4.87,0.6 7.04,1.73l140.99 73.63c5.03,2.63 8.18,7.84 8.18,13.51 0,2.45 -0.6,4.87 -1.73,7.04l-97.13 185.99c-2.63,5.02 -7.84,8.17 -13.51,8.17 -2.45,0 -4.87,-0.59 -7.04,-1.72l-141 -73.63c-5.02,-2.64 -8.17,-7.84 -8.17,-13.51 0,-2.45 0.6,-4.87 1.73,-7.05l0 0.01z"/>
    <path class="fil2" d="M540.45 1018.53c-4.61,-12.25 -16.34,-20.37 -29.44,-20.37 -6.88,0 -13.58,2.26 -19.06,6.43l-93.07 -61.74 -0.16 58.04 88.41 49.73c6,6.88 14.69,10.83 23.81,10.83 17.45,0 31.61,-14.15 31.61,-31.6 0,-3.87 -0.72,-7.71 -2.1,-11.32l0 0z"/>
    <path class="fil0" d="M422.78 1031.59l-76.07 -60.26c-21.83,-7.33 -36.56,-27.8 -36.56,-50.85 0,-12.38 4.28,-24.37 12.12,-33.95l69.06 -90.51c5.99,-7.32 14.96,-11.57 24.42,-11.57 17.42,0 31.55,14.13 31.55,31.55 0,4.17 -0.83,8.31 -2.44,12.16l-54.64 89.38 80.3 38.09c5.1,2.42 8.35,7.56 8.35,13.2 0,2.76 -0.78,5.47 -2.26,7.81l-32.41 51.3c-2.22,3.49 -5.82,5.9 -9.9,6.59 -0.08,0.02 -0.16,0.03 -0.24,0.04 -0.72,0.11 -1.46,0.17 -2.19,0.17 -3.3,0 -6.5,-1.11 -9.09,-3.15l0 0z"/>
   </g>
   <g id="cabeça">
    <circle class="fil2" cx="499.98" cy="653.44" r="76.76"/>
    <path class="fil3" d="M441.98 704.84c-0.23,-0.69 -0.36,-1.42 -0.36,-2.15 0,-3.49 2.69,-6.39 6.16,-6.66 4.2,0.23 8.13,2.17 10.87,5.36 2.78,3.2 6.02,5.99 9.6,8.24 3.71,1.88 8.75,1.61 10.87,-1.96 1.98,-3.35 0.62,-7.84 -0.58,-11.73 -3.05,-9.9 -4.79,-20.18 -5.09,-30.53 -0.35,-11.56 1.28,-23.63 7.68,-32.65 8.27,-11.64 23.04,-16.06 37.02,-15.74 13.99,0.32 27.74,4.63 41.59,7.36 4.79,0.94 10.41,1.42 13.6,-2.28 3.4,-3.94 2.15,-10.32 0.71,-15.64 -3.75,-13.81 -7.74,-28.08 -16.46,-39.23 -9.42,-11.58 -22.9,-19.18 -37.69,-21.23 -3.68,-0.45 -7.41,-0.68 -11.12,-0.68 -10.56,0 -21.05,1.85 -30.96,5.46 -21.89,6.9 -41.2,20.34 -55.27,38.5 -11.87,15.82 -18.3,35.08 -18.3,54.87 0,4.22 0.3,8.47 0.88,12.64 3.25,20.81 14.3,39.67 30.89,52.67l5.96 -4.62z"/>
   </g>
  </g>
 </g>
</svg>
